<svg width="25" height="24" viewBox="0 0 25 24" fill="none" xmlns="http://www.w3.org/2000/svg">
<path d="M15.885 22.25H9.365C4.455 22.25 2.355 20.15 2.355 15.24V15.11C2.355 10.67 4.105 8.53003 8.025 8.16003C8.425 8.13003 8.805 8.43003 8.845 8.84003C8.885 9.25003 8.585 9.62003 8.165 9.66003C5.025 9.95003 3.855 11.43 3.855 15.12V15.25C3.855 19.32 5.295 20.76 9.365 20.76H15.885C19.955 20.76 21.395 19.32 21.395 15.25V15.12C21.395 11.41 20.205 9.93003 17.005 9.66003C16.595 9.62003 16.285 9.26003 16.325 8.85003C16.365 8.44003 16.715 8.13003 17.135 8.17003C21.115 8.51003 22.895 10.66 22.895 15.13V15.26C22.895 20.15 20.795 22.25 15.885 22.25Z" fill="#ADB4C0"/>
<path d="M12.625 15.63C12.215 15.63 11.875 15.29 11.875 14.88V2C11.875 1.59 12.215 1.25 12.625 1.25C13.035 1.25 13.375 1.59 13.375 2V14.88C13.375 15.3 13.035 15.63 12.625 15.63Z" fill="#ADB4C0"/>
<path d="M12.625 16.7501C12.435 16.7501 12.245 16.6801 12.095 16.5301L8.745 13.1801C8.455 12.8901 8.455 12.4101 8.745 12.1201C9.035 11.8301 9.515 11.8301 9.805 12.1201L12.625 14.9401L15.445 12.1201C15.735 11.8301 16.215 11.8301 16.505 12.1201C16.795 12.4101 16.795 12.8901 16.505 13.1801L13.155 16.5301C13.005 16.6801 12.815 16.7501 12.625 16.7501Z" fill="#ADB4C0"/>
</svg>
