<svg width="25" height="24" viewBox="0 0 25 24" fill="none" xmlns="http://www.w3.org/2000/svg">
<path d="M13.375 9H17.425C20.625 9 22.625 11 22.615 14.2V16.8C22.615 20 20.615 22 17.415 22H7.825C4.625 22 2.625 20 2.625 16.79V14.2C2.625 11 4.625 9 7.825 9H11.875H13.375Z" fill="#EAECF0"/>
<path d="M15.885 22.2498H9.365C4.455 22.2498 2.355 20.1498 2.355 15.2398V15.1098C2.355 10.6698 4.105 8.52978 8.025 8.15978C8.425 8.12978 8.805 8.42978 8.845 8.83978C8.885 9.24978 8.585 9.61978 8.165 9.65978C5.025 9.94978 3.855 11.4298 3.855 15.1198V15.2498C3.855 19.3198 5.295 20.7598 9.365 20.7598H15.885C19.955 20.7598 21.395 19.3198 21.395 15.2498V15.1198C21.395 11.4098 20.205 9.92978 17.005 9.65978C16.595 9.61978 16.285 9.25978 16.325 8.84978C16.365 8.43978 16.715 8.12978 17.135 8.16978C21.115 8.50978 22.895 10.6598 22.895 15.1298V15.2598C22.895 20.1498 20.795 22.2498 15.885 22.2498Z" fill="#2C4364"/>
<path d="M12.625 15.63C12.215 15.63 11.875 15.29 11.875 14.88V2C11.875 1.59 12.215 1.25 12.625 1.25C13.035 1.25 13.375 1.59 13.375 2V14.88C13.375 15.3 13.035 15.63 12.625 15.63Z" fill="#2C4364"/>
<path d="M12.625 16.7498C12.435 16.7498 12.245 16.6798 12.095 16.5298L8.745 13.1798C8.455 12.8898 8.455 12.4098 8.745 12.1198C9.035 11.8298 9.515 11.8298 9.805 12.1198L12.625 14.9398L15.445 12.1198C15.735 11.8298 16.215 11.8298 16.505 12.1198C16.795 12.4098 16.795 12.8898 16.505 13.1798L13.155 16.5298C13.005 16.6798 12.815 16.7498 12.625 16.7498Z" fill="#2C4364"/>
<path d="M13.375 2.75C13.375 2.34 13.035 2 12.625 2C12.215 2 11.875 2.34 11.875 2.75V9H13.375V2.75Z" fill="#2C4364"/>
</svg>
