<svg width="25" height="24" viewBox="0 0 25 24" fill="none" xmlns="http://www.w3.org/2000/svg">
<path d="M12.375 2C6.865 2 2.375 6.49 2.375 12C2.375 17.51 6.865 22 12.375 22C17.885 22 22.375 17.51 22.375 12C22.375 6.49 17.885 2 12.375 2ZM17.155 9.7L11.485 15.37C11.345 15.51 11.155 15.59 10.955 15.59C10.755 15.59 10.565 15.51 10.425 15.37L7.595 12.54C7.305 12.25 7.305 11.77 7.595 11.48C7.885 11.19 8.365 11.19 8.655 11.48L10.955 13.78L16.095 8.64C16.385 8.35 16.865 8.35 17.155 8.64C17.445 8.93 17.445 9.4 17.155 9.7Z" fill="#EAECF0"/>
<path d="M12.375 22.75C6.445 22.75 1.625 17.93 1.625 12C1.625 6.07 6.445 1.25 12.375 1.25C18.305 1.25 23.125 6.07 23.125 12C23.125 17.93 18.305 22.75 12.375 22.75ZM12.375 2.75C7.275 2.75 3.125 6.9 3.125 12C3.125 17.1 7.275 21.25 12.375 21.25C17.475 21.25 21.625 17.1 21.625 12C21.625 6.9 17.475 2.75 12.375 2.75Z" fill="#2C4364"/>
<path d="M10.9549 15.5801C10.7549 15.5801 10.5649 15.5001 10.4249 15.3601L7.59494 12.5301C7.30494 12.2401 7.30494 11.7601 7.59494 11.4701C7.88494 11.1801 8.36494 11.1801 8.65494 11.4701L10.9549 13.7701L16.0949 8.6301C16.3849 8.3401 16.8649 8.3401 17.1549 8.6301C17.4449 8.9201 17.4449 9.4001 17.1549 9.6901L11.4849 15.3601C11.3449 15.5001 11.1549 15.5801 10.9549 15.5801Z" fill="#2C4364"/>
</svg>
