<svg width="25" height="24" viewBox="0 0 25 24" fill="none" xmlns="http://www.w3.org/2000/svg">
<path d="M12.375 22.75C6.445 22.75 1.625 17.93 1.625 12C1.625 6.07 6.445 1.25 12.375 1.25C18.305 1.25 23.125 6.07 23.125 12C23.125 17.93 18.305 22.75 12.375 22.75ZM12.375 2.75C7.275 2.75 3.125 6.9 3.125 12C3.125 17.1 7.275 21.25 12.375 21.25C17.475 21.25 21.625 17.1 21.625 12C21.625 6.9 17.475 2.75 12.375 2.75Z" fill="#ADB4C0"/>
<path d="M10.955 15.5801C10.755 15.5801 10.565 15.5001 10.425 15.3601L7.595 12.5301C7.305 12.2401 7.305 11.7601 7.595 11.4701C7.885 11.1801 8.365 11.1801 8.655 11.4701L10.955 13.7701L16.095 8.6301C16.385 8.3401 16.865 8.3401 17.155 8.6301C17.445 8.9201 17.445 9.4001 17.155 9.6901L11.485 15.3601C11.345 15.5001 11.155 15.5801 10.955 15.5801Z" fill="#ADB4C0"/>
</svg>
