<svg width="26" height="26" viewBox="0 0 26 26" fill="none" xmlns="http://www.w3.org/2000/svg">
<path d="M13 24.6457C6.57583 24.6457 1.35417 19.424 1.35417 12.9998C1.35417 6.57567 6.57583 1.354 13 1.354C19.4242 1.354 24.6458 6.57567 24.6458 12.9998C24.6458 19.424 19.4242 24.6457 13 24.6457ZM13 2.979C7.475 2.979 2.97917 7.47484 2.97917 12.9998C2.97917 18.5248 7.475 23.0207 13 23.0207C18.525 23.0207 23.0208 18.5248 23.0208 12.9998C23.0208 7.47484 18.525 2.979 13 2.979Z" fill="#ADB4C0"/>
<path d="M9.75 23.5625H8.66667C8.2225 23.5625 7.85417 23.1942 7.85417 22.75C7.85417 22.3058 8.20083 21.9483 8.645 21.9375C6.94417 16.1308 6.94417 9.86917 8.645 4.0625C8.20083 4.05167 7.85417 3.69417 7.85417 3.25C7.85417 2.80583 8.2225 2.4375 8.66667 2.4375H9.75C10.01 2.4375 10.2592 2.5675 10.4108 2.77333C10.5625 2.99 10.6058 3.26083 10.5192 3.51C8.4825 9.63083 8.4825 16.3692 10.5192 22.5008C10.6058 22.75 10.5625 23.0208 10.4108 23.2375C10.2592 23.4325 10.01 23.5625 9.75 23.5625Z" fill="#ADB4C0"/>
<path d="M16.25 23.5624C16.1633 23.5624 16.0767 23.5516 15.99 23.5191C15.5675 23.3782 15.3292 22.9124 15.4808 22.4899C17.5175 16.3691 17.5175 9.63074 15.4808 3.49908C15.34 3.07658 15.5675 2.61074 15.99 2.46991C16.4233 2.32908 16.8783 2.55658 17.0192 2.97908C19.175 9.43574 19.175 16.5424 17.0192 22.9882C16.9108 23.3457 16.5858 23.5624 16.25 23.5624Z" fill="#ADB4C0"/>
<path d="M13 18.6332C9.9775 18.6332 6.96583 18.2107 4.0625 17.3549C4.05167 17.7882 3.69417 18.1457 3.25 18.1457C2.80583 18.1457 2.4375 17.7774 2.4375 17.3332V16.2499C2.4375 15.9899 2.5675 15.7407 2.77333 15.589C2.99 15.4374 3.26083 15.394 3.51 15.4807C9.63083 17.5174 16.38 17.5174 22.5008 15.4807C22.75 15.394 23.0208 15.4374 23.2375 15.589C23.4542 15.7407 23.5733 15.9899 23.5733 16.2499V17.3332C23.5733 17.7774 23.205 18.1457 22.7608 18.1457C22.3167 18.1457 21.9592 17.799 21.9483 17.3549C19.0342 18.2107 16.0225 18.6332 13 18.6332Z" fill="#ADB4C0"/>
<path d="M22.75 10.5623C22.6633 10.5623 22.5767 10.5515 22.49 10.519C16.3692 8.48231 9.62 8.48231 3.49917 10.519C3.06583 10.6598 2.61083 10.4323 2.47 10.0098C2.34 9.57648 2.5675 9.12148 2.99 8.98064C9.44667 6.82481 16.5533 6.82481 22.9992 8.98064C23.4217 9.12148 23.66 9.58731 23.5083 10.0098C23.4108 10.3456 23.0858 10.5623 22.75 10.5623Z" fill="#ADB4C0"/>
</svg>
