<svg width="25" height="24" viewBox="0 0 25 24" fill="none" xmlns="http://www.w3.org/2000/svg">
<path d="M21.705 8.01002L15.155 2.77002C13.875 1.75002 11.875 1.74002 10.605 2.76002L4.05496 8.01002C3.11496 8.76002 2.54496 10.26 2.74496 11.44L4.00496 18.98C4.29496 20.67 5.86496 22 7.57496 22H18.175C19.865 22 21.465 20.64 21.755 18.97L23.015 11.43C23.195 10.26 22.625 8.76002 21.705 8.01002ZM13.625 18C13.625 18.41 13.285 18.75 12.875 18.75C12.465 18.75 12.125 18.41 12.125 18V15C12.125 14.59 12.465 14.25 12.875 14.25C13.285 14.25 13.625 14.59 13.625 15V18Z" fill="#EAECF0"/>
<path d="M12.875 18.75C12.465 18.75 12.125 18.41 12.125 18V15C12.125 14.59 12.465 14.25 12.875 14.25C13.285 14.25 13.625 14.59 13.625 15V18C13.625 18.41 13.285 18.75 12.875 18.75Z" fill="#2C4364"/>
<path d="M18.475 22.5601H7.275C5.455 22.5601 3.795 21.1601 3.495 19.3701L2.165 11.4001C1.945 10.1601 2.555 8.57007 3.545 7.78007L10.475 2.23007C11.815 1.15007 13.925 1.16007 15.275 2.24007L22.205 7.78007C23.185 8.57007 23.785 10.1601 23.585 11.4001L22.255 19.3601C21.955 21.1301 20.255 22.5601 18.475 22.5601ZM12.865 2.93007C12.335 2.93007 11.805 3.09007 11.415 3.40007L4.485 8.96007C3.925 9.41007 3.525 10.4501 3.645 11.1601L4.975 19.1201C5.155 20.1701 6.205 21.0601 7.275 21.0601H18.475C19.545 21.0601 20.595 20.1701 20.775 19.1101L22.105 11.1501C22.215 10.4501 21.815 9.39007 21.265 8.95007L14.335 3.41007C13.935 3.09007 13.395 2.93007 12.865 2.93007Z" fill="#2C4364"/>
</svg>
