<svg width="25" height="24" viewBox="0 0 25 24" fill="none" xmlns="http://www.w3.org/2000/svg">
<path d="M12.875 18.75C12.465 18.75 12.125 18.41 12.125 18V15C12.125 14.59 12.465 14.25 12.875 14.25C13.285 14.25 13.625 14.59 13.625 15V18C13.625 18.41 13.285 18.75 12.875 18.75Z" fill="#ADB4C0"/>
<path d="M18.475 22.5598H7.275C5.455 22.5598 3.795 21.1598 3.495 19.3698L2.165 11.3998C1.945 10.1598 2.555 8.56982 3.545 7.77982L10.475 2.22982C11.815 1.14982 13.925 1.15982 15.275 2.23982L22.205 7.77982C23.185 8.56982 23.785 10.1598 23.585 11.3998L22.255 19.3598C21.955 21.1298 20.255 22.5598 18.475 22.5598ZM12.865 2.92982C12.335 2.92982 11.805 3.08982 11.415 3.39982L4.485 8.95982C3.925 9.40982 3.525 10.4498 3.645 11.1598L4.975 19.1198C5.155 20.1698 6.205 21.0598 7.275 21.0598H18.475C19.545 21.0598 20.595 20.1698 20.775 19.1098L22.105 11.1498C22.215 10.4498 21.815 9.38982 21.265 8.94982L14.335 3.40982C13.935 3.08982 13.395 2.92982 12.865 2.92982Z" fill="#ADB4C0"/>
</svg>
