<svg width="26" height="26" viewBox="0 0 26 26" fill="none" xmlns="http://www.w3.org/2000/svg">
<path d="M14.19 9.68801C14.8398 9.99827 15.4057 10.4599 15.8401 11.0342C16.2745 11.6086 16.5647 12.2787 16.6864 12.9885C16.8081 13.6982 16.7577 14.4268 16.5394 15.113C16.3211 15.7992 15.9414 16.423 15.432 16.932L10.932 21.432C10.0881 22.2759 8.94349 22.75 7.75002 22.75C6.55654 22.75 5.41194 22.2759 4.56802 21.432C3.72411 20.5881 3.25 19.4435 3.25 18.25M4.56802 15.068L6.32502 13.311M19.675 12.689L21.432 10.932C22.2759 10.0881 22.75 8.94349 22.75 7.75002C22.75 6.55654 22.2759 5.41194 21.432 4.56802C20.5881 3.72411 19.4435 3.25 18.25 3.25C17.0565 3.25 15.9119 3.72411 15.068 4.56802L10.568 9.06801C10.0586 9.57701 9.67887 10.2008 9.46059 10.887C9.24231 11.5732 9.1919 12.3018 9.31358 13.0115C9.43527 13.7213 9.7255 14.3915 10.1599 14.9658C10.5943 15.5401 11.1602 16.0017 11.81 16.312" stroke="#ADB4C0" stroke-width="2" stroke-linecap="round" stroke-linejoin="round"/>
</svg>
