<svg width="152" height="152" viewBox="0 0 152 152" fill="none" xmlns="http://www.w3.org/2000/svg">
<rect width="152" height="152" rx="76" fill="#FEC7B8"/>
<rect x="16" y="16" width="120" height="120" rx="60" fill="#FB4B1A"/>
<path d="M92 64H78.5V78.8L85.4 71.9C85.9 71.4 86.5333 71.1667 87.1667 71.1667C87.8 71.1667 88.4333 71.4 88.9333 71.9C89.9 72.8667 89.9 74.4667 88.9333 75.4333L77.7667 86.6C76.8 87.5667 75.2 87.5667 74.2333 86.6L63.0667 75.4333C62.1 74.4667 62.1 72.8667 63.0667 71.9C64.0333 70.9333 65.6333 70.9333 66.6 71.9L73.5 78.8V64H60C49.3333 64 42.6667 70.6667 42.6667 81.3333V89.9667C42.6667 100.667 49.3333 107.333 60 107.333H91.9667C102.633 107.333 109.3 100.667 109.3 90V81.3333C109.333 70.6667 102.667 64 92 64Z" fill="white"/>
<path d="M78.5 43.1667C78.5 41.8 77.3667 40.6667 76 40.6667C74.6333 40.6667 73.5 41.8 73.5 43.1667V64H78.5V43.1667Z" fill="white"/>
</svg>
