<svg width="26" height="26" viewBox="0 0 26 26" fill="none" xmlns="http://www.w3.org/2000/svg">
<path d="M13.4983 24.646C13.3142 24.646 13.13 24.646 12.9458 24.6351C6.87917 24.3643 1.80917 19.4785 1.38667 13.5201C1.01833 8.40679 3.97583 3.62929 8.7425 1.62512C10.0967 1.06179 10.8117 1.49512 11.115 1.80929C11.4183 2.11262 11.8408 2.81679 11.2775 4.10596C10.7792 5.25429 10.53 6.47846 10.5408 7.73512C10.5625 12.5343 14.5492 16.6076 19.4133 16.8026C20.1175 16.8351 20.8108 16.781 21.4825 16.6618C22.9125 16.4018 23.5083 16.976 23.7358 17.3443C23.9633 17.7126 24.2233 18.5035 23.3567 19.6735C21.06 22.8151 17.4092 24.646 13.4983 24.646ZM3.00083 13.401C3.36917 18.5576 7.7675 22.7826 13.0108 23.0101C16.575 23.1835 19.955 21.5585 22.035 18.7201C22.1975 18.4926 22.2733 18.3301 22.3058 18.2435C22.2083 18.2326 22.035 18.2218 21.7642 18.276C20.9733 18.4168 20.15 18.471 19.3375 18.4385C13.6175 18.211 8.9375 13.4118 8.905 7.75679C8.905 6.26179 9.1975 4.82096 9.79333 3.46679C9.90167 3.22846 9.92333 3.06596 9.93417 2.97929C9.83667 2.97929 9.66333 3.00096 9.38167 3.12012C5.25417 4.85346 2.6975 8.99179 3.00083 13.401Z" fill="#ADB4C0"/>
</svg>
