<svg width="340" height="340" viewBox="0 0 340 340" fill="none" xmlns="http://www.w3.org/2000/svg">
<path d="M318 160C318 241.738 251.738 308 170 308C88.2619 308 22 241.738 22 160C22 78.2619 88.2619 12 170 12C251.738 12 318 78.2619 318 160Z" fill="#FEC7B8"/>
<g filter="url(#filter0_d_67_15392)">
<circle cx="170" cy="160" r="130" fill="#FDAC96"/>
</g>
<mask id="mask0_67_15392" style="mask-type:alpha" maskUnits="userSpaceOnUse" x="40" y="30" width="260" height="260">
<path d="M300 160C300 231.797 241.797 290 170 290C98.203 290 40 231.797 40 160C40 88.203 98.203 30 170 30C241.797 30 300 88.203 300 160Z" fill="#FDAC96"/>
</mask>
<g mask="url(#mask0_67_15392)">
<rect x="59" y="103" width="223" height="64" rx="16" fill="white"/>
<rect x="67" y="111" width="48" height="48" rx="8" fill="#FFEDE8"/>
<path d="M94 145.75H88C82.57 145.75 80.25 143.43 80.25 138V132C80.25 126.57 82.57 124.25 88 124.25H94C99.43 124.25 101.75 126.57 101.75 132V138C101.75 143.43 99.43 145.75 94 145.75ZM88 125.75C83.39 125.75 81.75 127.39 81.75 132V138C81.75 142.61 83.39 144.25 88 144.25H94C98.61 144.25 100.25 142.61 100.25 138V132C100.25 127.39 98.61 125.75 94 125.75H88Z" fill="#FB4B1A"/>
<path d="M100.48 130.86H81.52C81.11 130.86 80.77 130.52 80.77 130.11C80.77 129.7 81.1 129.36 81.52 129.36H100.48C100.89 129.36 101.23 129.7 101.23 130.11C101.23 130.52 100.9 130.86 100.48 130.86Z" fill="#FB4B1A"/>
<path d="M87.52 130.72C87.11 130.72 86.77 130.38 86.77 129.97V125.11C86.77 124.7 87.11 124.36 87.52 124.36C87.93 124.36 88.27 124.7 88.27 125.11V129.97C88.27 130.38 87.93 130.72 87.52 130.72Z" fill="#FB4B1A"/>
<path d="M94.48 130.27C94.07 130.27 93.73 129.93 93.73 129.52V125.11C93.73 124.7 94.07 124.36 94.48 124.36C94.89 124.36 95.23 124.7 95.23 125.11V129.52C95.23 129.94 94.9 130.27 94.48 130.27Z" fill="#FB4B1A"/>
<path d="M90.09 141.12C89.73 141.12 89.39 141.03 89.08 140.86C88.4 140.46 88 139.66 88 138.65V136.25C88 135.24 88.4 134.43 89.09 134.03C89.78 133.63 90.68 133.69 91.55 134.2L93.63 135.4C94.5 135.9 95.01 136.65 95.01 137.45C95.01 138.25 94.5 139 93.62 139.5L91.54 140.7C91.06 140.98 90.56 141.12 90.09 141.12ZM90.1 135.27C90 135.27 89.91 135.29 89.84 135.33C89.63 135.45 89.5 135.79 89.5 136.25V138.65C89.5 139.1 89.63 139.44 89.84 139.57C90.05 139.69 90.41 139.63 90.8 139.4L92.88 138.2C93.27 137.97 93.51 137.69 93.51 137.45C93.51 137.21 93.28 136.93 92.88 136.7L90.8 135.5C90.54 135.35 90.29 135.27 90.1 135.27Z" fill="#FB4B1A"/>
<path d="M134.39 131.18C133.942 131.18 133.528 131.088 133.148 130.904C132.768 130.72 132.444 130.466 132.176 130.142C131.908 129.818 131.716 129.446 131.6 129.026L132.446 128.798C132.522 129.11 132.66 129.38 132.86 129.608C133.06 129.832 133.294 130.006 133.562 130.13C133.834 130.254 134.118 130.316 134.414 130.316C134.798 130.316 135.142 130.224 135.446 130.04C135.754 129.852 135.998 129.604 136.178 129.296C136.358 128.988 136.448 128.65 136.448 128.282C136.448 127.902 136.354 127.56 136.166 127.256C135.978 126.948 135.73 126.704 135.422 126.524C135.114 126.344 134.778 126.254 134.414 126.254C134.006 126.254 133.654 126.344 133.358 126.524C133.062 126.7 132.826 126.922 132.65 127.19L131.846 126.854L132.11 122.36H136.724V123.206H132.5L132.938 122.792L132.704 126.626L132.482 126.332C132.73 126.048 133.03 125.826 133.382 125.666C133.734 125.506 134.104 125.426 134.492 125.426C135.024 125.426 135.504 125.554 135.932 125.81C136.36 126.062 136.7 126.404 136.952 126.836C137.204 127.268 137.33 127.75 137.33 128.282C137.33 128.81 137.196 129.294 136.928 129.734C136.66 130.17 136.304 130.52 135.86 130.784C135.416 131.048 134.926 131.18 134.39 131.18ZM138.814 131V129.974H139.84V131H138.814ZM144.123 131.18C143.675 131.18 143.261 131.088 142.881 130.904C142.501 130.72 142.177 130.466 141.909 130.142C141.641 129.818 141.449 129.446 141.333 129.026L142.179 128.798C142.255 129.11 142.393 129.38 142.593 129.608C142.793 129.832 143.027 130.006 143.295 130.13C143.567 130.254 143.851 130.316 144.147 130.316C144.531 130.316 144.875 130.224 145.179 130.04C145.487 129.852 145.731 129.604 145.911 129.296C146.091 128.988 146.181 128.65 146.181 128.282C146.181 127.902 146.087 127.56 145.899 127.256C145.711 126.948 145.463 126.704 145.155 126.524C144.847 126.344 144.511 126.254 144.147 126.254C143.739 126.254 143.387 126.344 143.091 126.524C142.795 126.7 142.559 126.922 142.383 127.19L141.579 126.854L141.843 122.36H146.457V123.206H142.233L142.671 122.792L142.437 126.626L142.215 126.332C142.463 126.048 142.763 125.826 143.115 125.666C143.467 125.506 143.837 125.426 144.225 125.426C144.757 125.426 145.237 125.554 145.665 125.81C146.093 126.062 146.433 126.404 146.685 126.836C146.937 127.268 147.063 127.75 147.063 128.282C147.063 128.81 146.929 129.294 146.661 129.734C146.393 130.17 146.037 130.52 145.593 130.784C145.149 131.048 144.659 131.18 144.123 131.18ZM151.3 131.18C150.76 131.18 150.268 131.05 149.824 130.79C149.384 130.526 149.032 130.17 148.768 129.722C148.508 129.27 148.378 128.762 148.378 128.198V125.204C148.378 124.624 148.508 124.108 148.768 123.656C149.028 123.2 149.382 122.842 149.83 122.582C150.282 122.318 150.794 122.186 151.366 122.186C151.858 122.186 152.314 122.294 152.734 122.51C153.158 122.726 153.504 123.028 153.772 123.416L153.094 123.974C152.91 123.686 152.666 123.456 152.362 123.284C152.058 123.112 151.726 123.026 151.366 123.026C150.962 123.026 150.602 123.124 150.286 123.32C149.97 123.516 149.722 123.774 149.542 124.094C149.362 124.41 149.272 124.754 149.272 125.126V127.01L149.05 126.758C149.302 126.362 149.632 126.042 150.04 125.798C150.452 125.554 150.9 125.432 151.384 125.432C151.92 125.432 152.402 125.56 152.83 125.816C153.258 126.068 153.598 126.41 153.85 126.842C154.102 127.274 154.228 127.758 154.228 128.294C154.228 128.826 154.094 129.31 153.826 129.746C153.562 130.182 153.208 130.53 152.764 130.79C152.324 131.05 151.836 131.18 151.3 131.18ZM151.3 130.322C151.676 130.322 152.018 130.232 152.326 130.052C152.638 129.872 152.884 129.628 153.064 129.32C153.248 129.012 153.34 128.67 153.34 128.294C153.34 127.918 153.248 127.576 153.064 127.268C152.884 126.956 152.64 126.71 152.332 126.53C152.024 126.346 151.682 126.254 151.306 126.254C150.93 126.254 150.588 126.346 150.28 126.53C149.972 126.71 149.726 126.956 149.542 127.268C149.362 127.576 149.272 127.918 149.272 128.294C149.272 128.666 149.362 129.006 149.542 129.314C149.722 129.622 149.966 129.868 150.274 130.052C150.582 130.232 150.924 130.322 151.3 130.322ZM157.982 131V122.36H158.792L162.188 129.626L165.566 122.36H166.388V130.994H165.548V124.328L162.47 131H161.9L158.828 124.328V131H157.982ZM167.952 131V122.36H171.288C171.772 122.36 172.194 122.46 172.554 122.66C172.914 122.86 173.194 123.13 173.394 123.47C173.594 123.806 173.694 124.178 173.694 124.586C173.694 125.05 173.57 125.464 173.322 125.828C173.074 126.188 172.742 126.438 172.326 126.578L172.314 126.284C172.874 126.444 173.314 126.724 173.634 127.124C173.954 127.524 174.114 128.008 174.114 128.576C174.114 129.076 174.008 129.508 173.796 129.872C173.584 130.232 173.286 130.51 172.902 130.706C172.518 130.902 172.072 131 171.564 131H167.952ZM168.84 130.154H171.348C171.7 130.154 172.016 130.092 172.296 129.968C172.576 129.84 172.796 129.66 172.956 129.428C173.12 129.196 173.202 128.916 173.202 128.588C173.202 128.268 173.128 127.98 172.98 127.724C172.832 127.468 172.63 127.264 172.374 127.112C172.122 126.956 171.834 126.878 171.51 126.878H168.84V130.154ZM168.84 126.044H171.282C171.558 126.044 171.81 125.982 172.038 125.858C172.266 125.73 172.446 125.556 172.578 125.336C172.714 125.116 172.782 124.862 172.782 124.574C172.782 124.166 172.64 123.834 172.356 123.578C172.076 123.322 171.718 123.194 171.282 123.194H168.84V126.044ZM179.658 122.36H180.564L178.26 131H177.354L179.658 122.36ZM184.75 131L187.93 123.218H183.928V122.36H188.872V123.218L185.698 131H184.75ZM189.563 131V129.974H190.589V131H189.563ZM192.082 130.994L192.088 130.19L195.994 126.662C196.33 126.358 196.552 126.07 196.66 125.798C196.772 125.522 196.828 125.234 196.828 124.934C196.828 124.578 196.744 124.256 196.576 123.968C196.408 123.68 196.182 123.452 195.898 123.284C195.614 123.112 195.296 123.026 194.944 123.026C194.576 123.026 194.248 123.114 193.96 123.29C193.672 123.466 193.444 123.698 193.276 123.986C193.112 124.274 193.032 124.588 193.036 124.928H192.136C192.136 124.404 192.26 123.934 192.508 123.518C192.756 123.102 193.092 122.776 193.516 122.54C193.94 122.3 194.42 122.18 194.956 122.18C195.48 122.18 195.95 122.304 196.366 122.552C196.786 122.796 197.116 123.128 197.356 123.548C197.6 123.964 197.722 124.428 197.722 124.94C197.722 125.3 197.678 125.618 197.59 125.894C197.506 126.166 197.372 126.42 197.188 126.656C197.008 126.888 196.778 127.128 196.498 127.376L193.03 130.508L192.892 130.148H197.722V130.994H192.082ZM201.68 131.18C201.14 131.18 200.662 131.072 200.246 130.856C199.834 130.64 199.51 130.338 199.274 129.95C199.042 129.558 198.926 129.1 198.926 128.576C198.926 128.04 199.056 127.564 199.316 127.148C199.576 126.728 199.972 126.41 200.504 126.194L200.492 126.542C200.048 126.378 199.71 126.11 199.478 125.738C199.246 125.366 199.13 124.954 199.13 124.502C199.13 124.022 199.24 123.61 199.46 123.266C199.68 122.918 199.98 122.65 200.36 122.462C200.744 122.274 201.184 122.18 201.68 122.18C202.176 122.18 202.616 122.274 203 122.462C203.384 122.65 203.686 122.918 203.906 123.266C204.126 123.61 204.236 124.022 204.236 124.502C204.236 124.954 204.124 125.364 203.9 125.732C203.68 126.1 203.342 126.37 202.886 126.542L202.856 126.194C203.388 126.406 203.786 126.722 204.05 127.142C204.318 127.562 204.452 128.04 204.452 128.576C204.452 129.1 204.334 129.558 204.098 129.95C203.862 130.338 203.536 130.64 203.12 130.856C202.704 131.072 202.224 131.18 201.68 131.18ZM201.68 130.334C202.224 130.334 202.666 130.184 203.006 129.884C203.346 129.58 203.516 129.144 203.516 128.576C203.516 128 203.348 127.564 203.012 127.268C202.676 126.968 202.232 126.818 201.68 126.818C201.128 126.818 200.686 126.968 200.354 127.268C200.022 127.564 199.856 128 199.856 128.576C199.856 129.144 200.024 129.58 200.36 129.884C200.696 130.184 201.136 130.334 201.68 130.334ZM201.68 125.966C202.16 125.966 202.55 125.844 202.85 125.6C203.15 125.352 203.3 124.986 203.3 124.502C203.3 124.018 203.15 123.656 202.85 123.416C202.55 123.172 202.16 123.05 201.68 123.05C201.2 123.05 200.81 123.172 200.51 123.416C200.214 123.656 200.066 124.018 200.066 124.502C200.066 124.986 200.214 125.352 200.51 125.6C200.81 125.844 201.2 125.966 201.68 125.966ZM208.169 131V122.36H208.979L212.375 129.626L215.753 122.36H216.575V130.994H215.735V124.328L212.657 131H212.087L209.015 124.328V131H208.169ZM218.139 131V122.36H221.475C221.959 122.36 222.381 122.46 222.741 122.66C223.101 122.86 223.381 123.13 223.581 123.47C223.781 123.806 223.881 124.178 223.881 124.586C223.881 125.05 223.757 125.464 223.509 125.828C223.261 126.188 222.929 126.438 222.513 126.578L222.501 126.284C223.061 126.444 223.501 126.724 223.821 127.124C224.141 127.524 224.301 128.008 224.301 128.576C224.301 129.076 224.195 129.508 223.983 129.872C223.771 130.232 223.473 130.51 223.089 130.706C222.705 130.902 222.259 131 221.751 131H218.139ZM219.027 130.154H221.535C221.887 130.154 222.203 130.092 222.483 129.968C222.763 129.84 222.983 129.66 223.143 129.428C223.307 129.196 223.389 128.916 223.389 128.588C223.389 128.268 223.315 127.98 223.167 127.724C223.019 127.468 222.817 127.264 222.561 127.112C222.309 126.956 222.021 126.878 221.697 126.878H219.027V130.154ZM219.027 126.044H221.469C221.745 126.044 221.997 125.982 222.225 125.858C222.453 125.73 222.633 125.556 222.765 125.336C222.901 125.116 222.969 124.862 222.969 124.574C222.969 124.166 222.827 123.834 222.543 123.578C222.263 123.322 221.905 123.194 221.469 123.194H219.027V126.044Z" fill="#838FA0"/>
<path d="M131 147C131 144.239 133.239 142 136 142H269C271.761 142 274 144.239 274 147C274 149.761 271.761 152 269 152H136C133.239 152 131 149.761 131 147Z" fill="#EAECF0"/>
<path d="M133 147C133 145.343 134.343 144 136 144H236C237.657 144 239 145.343 239 147C239 148.657 237.657 150 236 150H136C134.343 150 133 148.657 133 147Z" fill="url(#paint0_linear_67_15392)"/>
<rect x="59" y="175" width="223" height="64" rx="16" fill="white"/>
<rect x="67" y="183" width="48" height="48" rx="8" fill="#FFEDE8"/>
<path d="M94 217.75H88C82.57 217.75 80.25 215.43 80.25 210V204C80.25 198.57 82.57 196.25 88 196.25H94C99.43 196.25 101.75 198.57 101.75 204V210C101.75 215.43 99.43 217.75 94 217.75ZM88 197.75C83.39 197.75 81.75 199.39 81.75 204V210C81.75 214.61 83.39 216.25 88 216.25H94C98.61 216.25 100.25 214.61 100.25 210V204C100.25 199.39 98.61 197.75 94 197.75H88Z" fill="#FB4B1A"/>
<path d="M88 205.75C86.48 205.75 85.25 204.52 85.25 203C85.25 201.48 86.48 200.25 88 200.25C89.52 200.25 90.75 201.48 90.75 203C90.75 204.52 89.52 205.75 88 205.75ZM88 201.75C87.31 201.75 86.75 202.31 86.75 203C86.75 203.69 87.31 204.25 88 204.25C88.69 204.25 89.25 203.69 89.25 203C89.25 202.31 88.69 201.75 88 201.75Z" fill="#FB4B1A"/>
<path d="M81.67 214.7C81.43 214.7 81.19 214.58 81.05 214.37C80.82 214.03 80.91 213.56 81.26 213.33L86.19 210.02C87.27 209.29 88.76 209.38 89.74 210.21L90.07 210.5C90.57 210.93 91.42 210.93 91.91 210.5L96.07 206.93C97.13 206.02 98.8 206.02 99.87 206.93L101.5 208.33C101.81 208.6 101.85 209.07 101.58 209.39C101.31 209.7 100.84 209.74 100.52 209.47L98.89 208.07C98.39 207.64 97.54 207.64 97.04 208.07L92.88 211.64C91.82 212.55 90.15 212.55 89.08 211.64L88.75 211.35C88.29 210.96 87.53 210.92 87.02 211.27L82.09 214.58C81.96 214.66 81.81 214.7 81.67 214.7Z" fill="#FB4B1A"/>
<path d="M133.346 203V195.344L131.72 196.322V195.332L133.346 194.36H134.24V203H133.346ZM136.083 203V201.974H137.109V203H136.083ZM141.686 194.186C142.23 194.186 142.722 194.318 143.162 194.582C143.606 194.842 143.958 195.198 144.218 195.65C144.478 196.098 144.608 196.602 144.608 197.162V200.162C144.608 200.738 144.478 201.254 144.218 201.71C143.958 202.166 143.602 202.526 143.15 202.79C142.702 203.05 142.192 203.18 141.62 203.18C141.128 203.18 140.672 203.072 140.252 202.856C139.836 202.636 139.492 202.334 139.22 201.95L139.892 201.392C140.076 201.676 140.32 201.904 140.624 202.076C140.932 202.248 141.264 202.334 141.62 202.334C142.028 202.334 142.388 202.238 142.7 202.046C143.016 201.85 143.264 201.594 143.444 201.278C143.628 200.958 143.72 200.612 143.72 200.24V198.356L143.936 198.608C143.688 199.004 143.358 199.324 142.946 199.568C142.538 199.812 142.09 199.934 141.602 199.934C141.07 199.934 140.588 199.806 140.156 199.55C139.728 199.294 139.388 198.95 139.136 198.518C138.888 198.086 138.764 197.604 138.764 197.072C138.764 196.54 138.896 196.056 139.16 195.62C139.424 195.18 139.778 194.832 140.222 194.576C140.666 194.316 141.154 194.186 141.686 194.186ZM141.686 195.038C141.31 195.038 140.968 195.13 140.66 195.314C140.352 195.494 140.106 195.738 139.922 196.046C139.742 196.354 139.652 196.696 139.652 197.072C139.652 197.448 139.742 197.79 139.922 198.098C140.102 198.406 140.346 198.652 140.654 198.836C140.962 199.016 141.304 199.106 141.68 199.106C142.056 199.106 142.398 199.016 142.706 198.836C143.018 198.652 143.264 198.406 143.444 198.098C143.628 197.79 143.72 197.448 143.72 197.072C143.72 196.7 143.628 196.36 143.444 196.052C143.264 195.744 143.02 195.498 142.712 195.314C142.404 195.13 142.062 195.038 141.686 195.038ZM149.086 203.18C148.546 203.18 148.054 203.05 147.61 202.79C147.17 202.526 146.818 202.17 146.554 201.722C146.294 201.27 146.164 200.762 146.164 200.198V197.204C146.164 196.624 146.294 196.108 146.554 195.656C146.814 195.2 147.168 194.842 147.616 194.582C148.068 194.318 148.58 194.186 149.152 194.186C149.644 194.186 150.1 194.294 150.52 194.51C150.944 194.726 151.29 195.028 151.558 195.416L150.88 195.974C150.696 195.686 150.452 195.456 150.148 195.284C149.844 195.112 149.512 195.026 149.152 195.026C148.748 195.026 148.388 195.124 148.072 195.32C147.756 195.516 147.508 195.774 147.328 196.094C147.148 196.41 147.058 196.754 147.058 197.126V199.01L146.836 198.758C147.088 198.362 147.418 198.042 147.826 197.798C148.238 197.554 148.686 197.432 149.17 197.432C149.706 197.432 150.188 197.56 150.616 197.816C151.044 198.068 151.384 198.41 151.636 198.842C151.888 199.274 152.014 199.758 152.014 200.294C152.014 200.826 151.88 201.31 151.612 201.746C151.348 202.182 150.994 202.53 150.55 202.79C150.11 203.05 149.622 203.18 149.086 203.18ZM149.086 202.322C149.462 202.322 149.804 202.232 150.112 202.052C150.424 201.872 150.67 201.628 150.85 201.32C151.034 201.012 151.126 200.67 151.126 200.294C151.126 199.918 151.034 199.576 150.85 199.268C150.67 198.956 150.426 198.71 150.118 198.53C149.81 198.346 149.468 198.254 149.092 198.254C148.716 198.254 148.374 198.346 148.066 198.53C147.758 198.71 147.512 198.956 147.328 199.268C147.148 199.576 147.058 199.918 147.058 200.294C147.058 200.666 147.148 201.006 147.328 201.314C147.508 201.622 147.752 201.868 148.06 202.052C148.368 202.232 148.71 202.322 149.086 202.322ZM155.767 203V194.36H156.577L159.973 201.626L163.351 194.36H164.173V202.994H163.333V196.328L160.255 203H159.685L156.613 196.328V203H155.767ZM165.737 203V194.36H169.073C169.557 194.36 169.979 194.46 170.339 194.66C170.699 194.86 170.979 195.13 171.179 195.47C171.379 195.806 171.479 196.178 171.479 196.586C171.479 197.05 171.355 197.464 171.107 197.828C170.859 198.188 170.527 198.438 170.111 198.578L170.099 198.284C170.659 198.444 171.099 198.724 171.419 199.124C171.739 199.524 171.899 200.008 171.899 200.576C171.899 201.076 171.793 201.508 171.581 201.872C171.369 202.232 171.071 202.51 170.687 202.706C170.303 202.902 169.857 203 169.349 203H165.737ZM166.625 202.154H169.133C169.485 202.154 169.801 202.092 170.081 201.968C170.361 201.84 170.581 201.66 170.741 201.428C170.905 201.196 170.987 200.916 170.987 200.588C170.987 200.268 170.913 199.98 170.765 199.724C170.617 199.468 170.415 199.264 170.159 199.112C169.907 198.956 169.619 198.878 169.295 198.878H166.625V202.154ZM166.625 198.044H169.067C169.343 198.044 169.595 197.982 169.823 197.858C170.051 197.73 170.231 197.556 170.363 197.336C170.499 197.116 170.567 196.862 170.567 196.574C170.567 196.166 170.425 195.834 170.141 195.578C169.861 195.322 169.503 195.194 169.067 195.194H166.625V198.044ZM177.443 194.36H178.349L176.045 203H175.139L177.443 194.36ZM181.834 202.994L181.84 202.19L185.746 198.662C186.082 198.358 186.304 198.07 186.412 197.798C186.524 197.522 186.58 197.234 186.58 196.934C186.58 196.578 186.496 196.256 186.328 195.968C186.16 195.68 185.934 195.452 185.65 195.284C185.366 195.112 185.048 195.026 184.696 195.026C184.328 195.026 184 195.114 183.712 195.29C183.424 195.466 183.196 195.698 183.028 195.986C182.864 196.274 182.784 196.588 182.788 196.928H181.888C181.888 196.404 182.012 195.934 182.26 195.518C182.508 195.102 182.844 194.776 183.268 194.54C183.692 194.3 184.172 194.18 184.708 194.18C185.232 194.18 185.702 194.304 186.118 194.552C186.538 194.796 186.868 195.128 187.108 195.548C187.352 195.964 187.474 196.428 187.474 196.94C187.474 197.3 187.43 197.618 187.342 197.894C187.258 198.166 187.124 198.42 186.94 198.656C186.76 198.888 186.53 199.128 186.25 199.376L182.782 202.508L182.644 202.148H187.474V202.994H181.834ZM188.965 203V201.974H189.991V203H188.965ZM195.528 203V201.326H191.484V200.486L194.376 194.36H195.366L192.474 200.486H195.528V197.966H196.416V200.486H197.358V201.326H196.416V203H195.528ZM201.316 203.18C200.776 203.18 200.298 203.072 199.882 202.856C199.47 202.64 199.146 202.338 198.91 201.95C198.678 201.558 198.562 201.1 198.562 200.576C198.562 200.04 198.692 199.564 198.952 199.148C199.212 198.728 199.608 198.41 200.14 198.194L200.128 198.542C199.684 198.378 199.346 198.11 199.114 197.738C198.882 197.366 198.766 196.954 198.766 196.502C198.766 196.022 198.876 195.61 199.096 195.266C199.316 194.918 199.616 194.65 199.996 194.462C200.38 194.274 200.82 194.18 201.316 194.18C201.812 194.18 202.252 194.274 202.636 194.462C203.02 194.65 203.322 194.918 203.542 195.266C203.762 195.61 203.872 196.022 203.872 196.502C203.872 196.954 203.76 197.364 203.536 197.732C203.316 198.1 202.978 198.37 202.522 198.542L202.492 198.194C203.024 198.406 203.422 198.722 203.686 199.142C203.954 199.562 204.088 200.04 204.088 200.576C204.088 201.1 203.97 201.558 203.734 201.95C203.498 202.338 203.172 202.64 202.756 202.856C202.34 203.072 201.86 203.18 201.316 203.18ZM201.316 202.334C201.86 202.334 202.302 202.184 202.642 201.884C202.982 201.58 203.152 201.144 203.152 200.576C203.152 200 202.984 199.564 202.648 199.268C202.312 198.968 201.868 198.818 201.316 198.818C200.764 198.818 200.322 198.968 199.99 199.268C199.658 199.564 199.492 200 199.492 200.576C199.492 201.144 199.66 201.58 199.996 201.884C200.332 202.184 200.772 202.334 201.316 202.334ZM201.316 197.966C201.796 197.966 202.186 197.844 202.486 197.6C202.786 197.352 202.936 196.986 202.936 196.502C202.936 196.018 202.786 195.656 202.486 195.416C202.186 195.172 201.796 195.05 201.316 195.05C200.836 195.05 200.446 195.172 200.146 195.416C199.85 195.656 199.702 196.018 199.702 196.502C199.702 196.986 199.85 197.352 200.146 197.6C200.446 197.844 200.836 197.966 201.316 197.966ZM207.806 203V194.36H208.616L212.012 201.626L215.39 194.36H216.212V202.994H215.372V196.328L212.294 203H211.724L208.652 196.328V203H207.806ZM217.775 203V194.36H221.111C221.595 194.36 222.017 194.46 222.377 194.66C222.737 194.86 223.017 195.13 223.217 195.47C223.417 195.806 223.517 196.178 223.517 196.586C223.517 197.05 223.393 197.464 223.145 197.828C222.897 198.188 222.565 198.438 222.149 198.578L222.137 198.284C222.697 198.444 223.137 198.724 223.457 199.124C223.777 199.524 223.937 200.008 223.937 200.576C223.937 201.076 223.831 201.508 223.619 201.872C223.407 202.232 223.109 202.51 222.725 202.706C222.341 202.902 221.895 203 221.387 203H217.775ZM218.663 202.154H221.171C221.523 202.154 221.839 202.092 222.119 201.968C222.399 201.84 222.619 201.66 222.779 201.428C222.943 201.196 223.025 200.916 223.025 200.588C223.025 200.268 222.951 199.98 222.803 199.724C222.655 199.468 222.453 199.264 222.197 199.112C221.945 198.956 221.657 198.878 221.333 198.878H218.663V202.154ZM218.663 198.044H221.105C221.381 198.044 221.633 197.982 221.861 197.858C222.089 197.73 222.269 197.556 222.401 197.336C222.537 197.116 222.605 196.862 222.605 196.574C222.605 196.166 222.463 195.834 222.179 195.578C221.899 195.322 221.541 195.194 221.105 195.194H218.663V198.044Z" fill="#838FA0"/>
<path d="M131 219C131 216.239 133.239 214 136 214H269C271.761 214 274 216.239 274 219C274 221.761 271.761 224 269 224H136C133.239 224 131 221.761 131 219Z" fill="#EAECF0"/>
<path d="M133 219C133 217.343 134.343 216 136 216H236C237.657 216 239 217.343 239 219C239 220.657 237.657 222 236 222H136C134.343 222 133 220.657 133 219Z" fill="url(#paint1_linear_67_15392)"/>
<rect x="59" y="247" width="223" height="64" rx="16" fill="white"/>
<rect x="67" y="255" width="48" height="48" rx="8" fill="#FFEDE8"/>
<path d="M94 289.75H88C82.57 289.75 80.25 287.43 80.25 282V276C80.25 270.57 82.57 268.25 88 268.25H94C99.43 268.25 101.75 270.57 101.75 276V282C101.75 287.43 99.43 289.75 94 289.75ZM88 269.75C83.39 269.75 81.75 271.39 81.75 276V282C81.75 286.61 83.39 288.25 88 288.25H94C98.61 288.25 100.25 286.61 100.25 282V276C100.25 271.39 98.61 269.75 94 269.75H88Z" fill="#FB4B1A"/>
<path d="M100.48 274.86H81.52C81.11 274.86 80.77 274.52 80.77 274.11C80.77 273.7 81.1 273.36 81.52 273.36H100.48C100.89 273.36 101.23 273.7 101.23 274.11C101.23 274.52 100.9 274.86 100.48 274.86Z" fill="#FB4B1A"/>
<path d="M87.52 274.72C87.11 274.72 86.77 274.38 86.77 273.97V269.11C86.77 268.7 87.11 268.36 87.52 268.36C87.93 268.36 88.27 268.7 88.27 269.11V273.97C88.27 274.38 87.93 274.72 87.52 274.72Z" fill="#FB4B1A"/>
<path d="M94.48 274.27C94.07 274.27 93.73 273.93 93.73 273.52V269.11C93.73 268.7 94.07 268.36 94.48 268.36C94.89 268.36 95.23 268.7 95.23 269.11V273.52C95.23 273.94 94.9 274.27 94.48 274.27Z" fill="#FB4B1A"/>
<path d="M90.09 285.12C89.73 285.12 89.39 285.03 89.08 284.86C88.4 284.46 88 283.66 88 282.65V280.25C88 279.24 88.4 278.43 89.09 278.03C89.78 277.63 90.68 277.69 91.55 278.2L93.63 279.4C94.5 279.9 95.01 280.65 95.01 281.45C95.01 282.25 94.5 283 93.62 283.5L91.54 284.7C91.06 284.98 90.56 285.12 90.09 285.12ZM90.1 279.27C90 279.27 89.91 279.29 89.84 279.33C89.63 279.45 89.5 279.79 89.5 280.25V282.65C89.5 283.1 89.63 283.44 89.84 283.57C90.05 283.69 90.41 283.63 90.8 283.4L92.88 282.2C93.27 281.97 93.51 281.69 93.51 281.45C93.51 281.21 93.28 280.93 92.88 280.7L90.8 279.5C90.54 279.35 90.29 279.27 90.1 279.27Z" fill="#FB4B1A"/>
<path d="M134.39 275.18C133.942 275.18 133.528 275.088 133.148 274.904C132.768 274.72 132.444 274.466 132.176 274.142C131.908 273.818 131.716 273.446 131.6 273.026L132.446 272.798C132.522 273.11 132.66 273.38 132.86 273.608C133.06 273.832 133.294 274.006 133.562 274.13C133.834 274.254 134.118 274.316 134.414 274.316C134.798 274.316 135.142 274.224 135.446 274.04C135.754 273.852 135.998 273.604 136.178 273.296C136.358 272.988 136.448 272.65 136.448 272.282C136.448 271.902 136.354 271.56 136.166 271.256C135.978 270.948 135.73 270.704 135.422 270.524C135.114 270.344 134.778 270.254 134.414 270.254C134.006 270.254 133.654 270.344 133.358 270.524C133.062 270.7 132.826 270.922 132.65 271.19L131.846 270.854L132.11 266.36H136.724V267.206H132.5L132.938 266.792L132.704 270.626L132.482 270.332C132.73 270.048 133.03 269.826 133.382 269.666C133.734 269.506 134.104 269.426 134.492 269.426C135.024 269.426 135.504 269.554 135.932 269.81C136.36 270.062 136.7 270.404 136.952 270.836C137.204 271.268 137.33 271.75 137.33 272.282C137.33 272.81 137.196 273.294 136.928 273.734C136.66 274.17 136.304 274.52 135.86 274.784C135.416 275.048 134.926 275.18 134.39 275.18ZM138.814 275V273.974H139.84V275H138.814ZM144.123 275.18C143.675 275.18 143.261 275.088 142.881 274.904C142.501 274.72 142.177 274.466 141.909 274.142C141.641 273.818 141.449 273.446 141.333 273.026L142.179 272.798C142.255 273.11 142.393 273.38 142.593 273.608C142.793 273.832 143.027 274.006 143.295 274.13C143.567 274.254 143.851 274.316 144.147 274.316C144.531 274.316 144.875 274.224 145.179 274.04C145.487 273.852 145.731 273.604 145.911 273.296C146.091 272.988 146.181 272.65 146.181 272.282C146.181 271.902 146.087 271.56 145.899 271.256C145.711 270.948 145.463 270.704 145.155 270.524C144.847 270.344 144.511 270.254 144.147 270.254C143.739 270.254 143.387 270.344 143.091 270.524C142.795 270.7 142.559 270.922 142.383 271.19L141.579 270.854L141.843 266.36H146.457V267.206H142.233L142.671 266.792L142.437 270.626L142.215 270.332C142.463 270.048 142.763 269.826 143.115 269.666C143.467 269.506 143.837 269.426 144.225 269.426C144.757 269.426 145.237 269.554 145.665 269.81C146.093 270.062 146.433 270.404 146.685 270.836C146.937 271.268 147.063 271.75 147.063 272.282C147.063 272.81 146.929 273.294 146.661 273.734C146.393 274.17 146.037 274.52 145.593 274.784C145.149 275.048 144.659 275.18 144.123 275.18ZM151.3 275.18C150.76 275.18 150.268 275.05 149.824 274.79C149.384 274.526 149.032 274.17 148.768 273.722C148.508 273.27 148.378 272.762 148.378 272.198V269.204C148.378 268.624 148.508 268.108 148.768 267.656C149.028 267.2 149.382 266.842 149.83 266.582C150.282 266.318 150.794 266.186 151.366 266.186C151.858 266.186 152.314 266.294 152.734 266.51C153.158 266.726 153.504 267.028 153.772 267.416L153.094 267.974C152.91 267.686 152.666 267.456 152.362 267.284C152.058 267.112 151.726 267.026 151.366 267.026C150.962 267.026 150.602 267.124 150.286 267.32C149.97 267.516 149.722 267.774 149.542 268.094C149.362 268.41 149.272 268.754 149.272 269.126V271.01L149.05 270.758C149.302 270.362 149.632 270.042 150.04 269.798C150.452 269.554 150.9 269.432 151.384 269.432C151.92 269.432 152.402 269.56 152.83 269.816C153.258 270.068 153.598 270.41 153.85 270.842C154.102 271.274 154.228 271.758 154.228 272.294C154.228 272.826 154.094 273.31 153.826 273.746C153.562 274.182 153.208 274.53 152.764 274.79C152.324 275.05 151.836 275.18 151.3 275.18ZM151.3 274.322C151.676 274.322 152.018 274.232 152.326 274.052C152.638 273.872 152.884 273.628 153.064 273.32C153.248 273.012 153.34 272.67 153.34 272.294C153.34 271.918 153.248 271.576 153.064 271.268C152.884 270.956 152.64 270.71 152.332 270.53C152.024 270.346 151.682 270.254 151.306 270.254C150.93 270.254 150.588 270.346 150.28 270.53C149.972 270.71 149.726 270.956 149.542 271.268C149.362 271.576 149.272 271.918 149.272 272.294C149.272 272.666 149.362 273.006 149.542 273.314C149.722 273.622 149.966 273.868 150.274 274.052C150.582 274.232 150.924 274.322 151.3 274.322ZM157.982 275V266.36H158.792L162.188 273.626L165.566 266.36H166.388V274.994H165.548V268.328L162.47 275H161.9L158.828 268.328V275H157.982ZM167.952 275V266.36H171.288C171.772 266.36 172.194 266.46 172.554 266.66C172.914 266.86 173.194 267.13 173.394 267.47C173.594 267.806 173.694 268.178 173.694 268.586C173.694 269.05 173.57 269.464 173.322 269.828C173.074 270.188 172.742 270.438 172.326 270.578L172.314 270.284C172.874 270.444 173.314 270.724 173.634 271.124C173.954 271.524 174.114 272.008 174.114 272.576C174.114 273.076 174.008 273.508 173.796 273.872C173.584 274.232 173.286 274.51 172.902 274.706C172.518 274.902 172.072 275 171.564 275H167.952ZM168.84 274.154H171.348C171.7 274.154 172.016 274.092 172.296 273.968C172.576 273.84 172.796 273.66 172.956 273.428C173.12 273.196 173.202 272.916 173.202 272.588C173.202 272.268 173.128 271.98 172.98 271.724C172.832 271.468 172.63 271.264 172.374 271.112C172.122 270.956 171.834 270.878 171.51 270.878H168.84V274.154ZM168.84 270.044H171.282C171.558 270.044 171.81 269.982 172.038 269.858C172.266 269.73 172.446 269.556 172.578 269.336C172.714 269.116 172.782 268.862 172.782 268.574C172.782 268.166 172.64 267.834 172.356 267.578C172.076 267.322 171.718 267.194 171.282 267.194H168.84V270.044ZM179.658 266.36H180.564L178.26 275H177.354L179.658 266.36ZM184.75 275L187.93 267.218H183.928V266.36H188.872V267.218L185.698 275H184.75ZM189.563 275V273.974H190.589V275H189.563ZM192.082 274.994L192.088 274.19L195.994 270.662C196.33 270.358 196.552 270.07 196.66 269.798C196.772 269.522 196.828 269.234 196.828 268.934C196.828 268.578 196.744 268.256 196.576 267.968C196.408 267.68 196.182 267.452 195.898 267.284C195.614 267.112 195.296 267.026 194.944 267.026C194.576 267.026 194.248 267.114 193.96 267.29C193.672 267.466 193.444 267.698 193.276 267.986C193.112 268.274 193.032 268.588 193.036 268.928H192.136C192.136 268.404 192.26 267.934 192.508 267.518C192.756 267.102 193.092 266.776 193.516 266.54C193.94 266.3 194.42 266.18 194.956 266.18C195.48 266.18 195.95 266.304 196.366 266.552C196.786 266.796 197.116 267.128 197.356 267.548C197.6 267.964 197.722 268.428 197.722 268.94C197.722 269.3 197.678 269.618 197.59 269.894C197.506 270.166 197.372 270.42 197.188 270.656C197.008 270.888 196.778 271.128 196.498 271.376L193.03 274.508L192.892 274.148H197.722V274.994H192.082ZM201.68 275.18C201.14 275.18 200.662 275.072 200.246 274.856C199.834 274.64 199.51 274.338 199.274 273.95C199.042 273.558 198.926 273.1 198.926 272.576C198.926 272.04 199.056 271.564 199.316 271.148C199.576 270.728 199.972 270.41 200.504 270.194L200.492 270.542C200.048 270.378 199.71 270.11 199.478 269.738C199.246 269.366 199.13 268.954 199.13 268.502C199.13 268.022 199.24 267.61 199.46 267.266C199.68 266.918 199.98 266.65 200.36 266.462C200.744 266.274 201.184 266.18 201.68 266.18C202.176 266.18 202.616 266.274 203 266.462C203.384 266.65 203.686 266.918 203.906 267.266C204.126 267.61 204.236 268.022 204.236 268.502C204.236 268.954 204.124 269.364 203.9 269.732C203.68 270.1 203.342 270.37 202.886 270.542L202.856 270.194C203.388 270.406 203.786 270.722 204.05 271.142C204.318 271.562 204.452 272.04 204.452 272.576C204.452 273.1 204.334 273.558 204.098 273.95C203.862 274.338 203.536 274.64 203.12 274.856C202.704 275.072 202.224 275.18 201.68 275.18ZM201.68 274.334C202.224 274.334 202.666 274.184 203.006 273.884C203.346 273.58 203.516 273.144 203.516 272.576C203.516 272 203.348 271.564 203.012 271.268C202.676 270.968 202.232 270.818 201.68 270.818C201.128 270.818 200.686 270.968 200.354 271.268C200.022 271.564 199.856 272 199.856 272.576C199.856 273.144 200.024 273.58 200.36 273.884C200.696 274.184 201.136 274.334 201.68 274.334ZM201.68 269.966C202.16 269.966 202.55 269.844 202.85 269.6C203.15 269.352 203.3 268.986 203.3 268.502C203.3 268.018 203.15 267.656 202.85 267.416C202.55 267.172 202.16 267.05 201.68 267.05C201.2 267.05 200.81 267.172 200.51 267.416C200.214 267.656 200.066 268.018 200.066 268.502C200.066 268.986 200.214 269.352 200.51 269.6C200.81 269.844 201.2 269.966 201.68 269.966ZM208.169 275V266.36H208.979L212.375 273.626L215.753 266.36H216.575V274.994H215.735V268.328L212.657 275H212.087L209.015 268.328V275H208.169ZM218.139 275V266.36H221.475C221.959 266.36 222.381 266.46 222.741 266.66C223.101 266.86 223.381 267.13 223.581 267.47C223.781 267.806 223.881 268.178 223.881 268.586C223.881 269.05 223.757 269.464 223.509 269.828C223.261 270.188 222.929 270.438 222.513 270.578L222.501 270.284C223.061 270.444 223.501 270.724 223.821 271.124C224.141 271.524 224.301 272.008 224.301 272.576C224.301 273.076 224.195 273.508 223.983 273.872C223.771 274.232 223.473 274.51 223.089 274.706C222.705 274.902 222.259 275 221.751 275H218.139ZM219.027 274.154H221.535C221.887 274.154 222.203 274.092 222.483 273.968C222.763 273.84 222.983 273.66 223.143 273.428C223.307 273.196 223.389 272.916 223.389 272.588C223.389 272.268 223.315 271.98 223.167 271.724C223.019 271.468 222.817 271.264 222.561 271.112C222.309 270.956 222.021 270.878 221.697 270.878H219.027V274.154ZM219.027 270.044H221.469C221.745 270.044 221.997 269.982 222.225 269.858C222.453 269.73 222.633 269.556 222.765 269.336C222.901 269.116 222.969 268.862 222.969 268.574C222.969 268.166 222.827 267.834 222.543 267.578C222.263 267.322 221.905 267.194 221.469 267.194H219.027V270.044Z" fill="#838FA0"/>
<path d="M131 291C131 288.239 133.239 286 136 286H269C271.761 286 274 288.239 274 291C274 293.761 271.761 296 269 296H136C133.239 296 131 293.761 131 291Z" fill="#EAECF0"/>
<path d="M133 291C133 289.343 134.343 288 136 288H236C237.657 288 239 289.343 239 291C239 292.657 237.657 294 236 294H136C134.343 294 133 292.657 133 291Z" fill="url(#paint2_linear_67_15392)"/>
<path opacity="0.8" d="M136 78.5C136 97.5538 151.446 113 170.5 113C189.554 113 205 97.5538 205 78.5C205 59.4462 189.554 44 170.5 44C151.446 44 136 59.4462 136 78.5Z" fill="#FFEDE8"/>
<g filter="url(#filter1_d_67_15392)">
<path d="M143 78.5C143 93.6878 155.312 106 170.5 106C185.688 106 198 93.6878 198 78.5C198 63.3122 185.688 51 170.5 51C155.312 51 143 63.3122 143 78.5Z" fill="#FB4B1A"/>
</g>
<path d="M177.7 74H171.625V80.66L174.73 77.555C174.955 77.33 175.24 77.225 175.525 77.225C175.81 77.225 176.095 77.33 176.32 77.555C176.755 77.99 176.755 78.71 176.32 79.145L171.295 84.17C170.86 84.605 170.14 84.605 169.705 84.17L164.68 79.145C164.245 78.71 164.245 77.99 164.68 77.555C165.115 77.12 165.835 77.12 166.27 77.555L169.375 80.66V74H163.3C158.5 74 155.5 77 155.5 81.8V85.685C155.5 90.5 158.5 93.5 163.3 93.5H177.685C182.485 93.5 185.485 90.5 185.485 85.7V81.8C185.5 77 182.5 74 177.7 74Z" fill="#FFEDE8"/>
<path d="M171.625 64.625C171.625 64.01 171.115 63.5 170.5 63.5C169.885 63.5 169.375 64.01 169.375 64.625V74H171.625V64.625Z" fill="#FFEDE8"/>
</g>
<defs>
<filter id="filter0_d_67_15392" x="0" y="0" width="340" height="340" filterUnits="userSpaceOnUse" color-interpolation-filters="sRGB">
<feFlood flood-opacity="0" result="BackgroundImageFix"/>
<feColorMatrix in="SourceAlpha" type="matrix" values="0 0 0 0 0 0 0 0 0 0 0 0 0 0 0 0 0 0 127 0" result="hardAlpha"/>
<feOffset dy="10"/>
<feGaussianBlur stdDeviation="20"/>
<feComposite in2="hardAlpha" operator="out"/>
<feColorMatrix type="matrix" values="0 0 0 0 0 0 0 0 0 0 0 0 0 0 0 0 0 0 0.1 0"/>
<feBlend mode="normal" in2="BackgroundImageFix" result="effect1_dropShadow_67_15392"/>
<feBlend mode="normal" in="SourceGraphic" in2="effect1_dropShadow_67_15392" result="shape"/>
</filter>
<filter id="filter1_d_67_15392" x="103" y="16" width="135" height="135" filterUnits="userSpaceOnUse" color-interpolation-filters="sRGB">
<feFlood flood-opacity="0" result="BackgroundImageFix"/>
<feColorMatrix in="SourceAlpha" type="matrix" values="0 0 0 0 0 0 0 0 0 0 0 0 0 0 0 0 0 0 127 0" result="hardAlpha"/>
<feOffset dy="5"/>
<feGaussianBlur stdDeviation="20"/>
<feComposite in2="hardAlpha" operator="out"/>
<feColorMatrix type="matrix" values="0 0 0 0 0.4 0 0 0 0 0.4 0 0 0 0 0.4 0 0 0 0.3 0"/>
<feBlend mode="normal" in2="BackgroundImageFix" result="effect1_dropShadow_67_15392"/>
<feBlend mode="normal" in="SourceGraphic" in2="effect1_dropShadow_67_15392" result="shape"/>
</filter>
<linearGradient id="paint0_linear_67_15392" x1="128.319" y1="143.588" x2="139.117" y2="180.086" gradientUnits="userSpaceOnUse">
<stop stop-color="#FB7819"/>
<stop offset="1" stop-color="#FB4B1A"/>
</linearGradient>
<linearGradient id="paint1_linear_67_15392" x1="128.319" y1="215.588" x2="139.117" y2="252.086" gradientUnits="userSpaceOnUse">
<stop stop-color="#FB7819"/>
<stop offset="1" stop-color="#FB4B1A"/>
</linearGradient>
<linearGradient id="paint2_linear_67_15392" x1="128.319" y1="287.588" x2="139.117" y2="324.086" gradientUnits="userSpaceOnUse">
<stop stop-color="#FB7819"/>
<stop offset="1" stop-color="#FB4B1A"/>
</linearGradient>
</defs>
</svg>
