<svg width="340" height="340" viewBox="0 0 340 340" fill="none" xmlns="http://www.w3.org/2000/svg">
<path d="M318 160C318 241.738 251.738 308 170 308C88.2619 308 22 241.738 22 160C22 78.2619 88.2619 12 170 12C251.738 12 318 78.2619 318 160Z" fill="#FEC7B8"/>
<g filter="url(#filter0_d_67_15543)">
<circle cx="170" cy="160" r="130" fill="#FDAC96"/>
</g>
<mask id="mask0_67_15543" style="mask-type:alpha" maskUnits="userSpaceOnUse" x="40" y="30" width="260" height="260">
<path d="M300 160C300 231.797 241.797 290 170 290C98.203 290 40 231.797 40 160C40 88.203 98.203 30 170 30C241.797 30 300 88.203 300 160Z" fill="#FDAC96"/>
</mask>
<g mask="url(#mask0_67_15543)">
<rect x="58" y="103" width="223" height="66" rx="8" fill="white"/>
<path d="M91.4982 147.646C91.3141 147.646 91.1299 147.646 90.9457 147.635C84.8791 147.364 79.8091 142.478 79.3866 136.52C79.0182 131.407 81.9757 126.629 86.7424 124.625C88.0966 124.062 88.8116 124.495 89.1149 124.809C89.4182 125.113 89.8407 125.817 89.2774 127.106C88.7791 128.254 88.5299 129.478 88.5407 130.735C88.5624 135.534 92.5491 139.608 97.4132 139.803C98.1174 139.835 98.8107 139.781 99.4824 139.662C100.912 139.402 101.508 139.976 101.736 140.344C101.963 140.713 102.223 141.503 101.357 142.673C99.0599 145.815 95.4091 147.646 91.4982 147.646ZM81.0007 136.401C81.3691 141.558 85.7674 145.783 91.0107 146.01C94.5749 146.183 97.9549 144.558 100.035 141.72C100.197 141.493 100.273 141.33 100.306 141.243C100.208 141.233 100.035 141.222 99.7641 141.276C98.9732 141.417 98.1499 141.471 97.3374 141.438C91.6174 141.211 86.9374 136.412 86.9049 130.757C86.9049 129.262 87.1974 127.821 87.7932 126.467C87.9016 126.228 87.9232 126.066 87.9341 125.979C87.8366 125.979 87.6632 126.001 87.3816 126.12C83.2541 127.853 80.6974 131.992 81.0007 136.401Z" fill="#ADB4C0"/>
<path d="M213 136C213 128.82 218.82 123 226 123H248C255.18 123 261 128.82 261 136C261 143.18 255.18 149 248 149H226C218.82 149 213 143.18 213 136Z" fill="#D6D9DF"/>
<circle cx="226" cy="136" r="9" fill="white"/>
<rect x="58" y="177" width="223" height="66" rx="8" fill="#1D283A"/>
<path d="M91.4982 221.646C91.3141 221.646 91.1299 221.646 90.9457 221.635C84.8791 221.364 79.8091 216.478 79.3866 210.52C79.0182 205.407 81.9757 200.629 86.7424 198.625C88.0966 198.062 88.8116 198.495 89.1149 198.809C89.4182 199.113 89.8407 199.817 89.2774 201.106C88.7791 202.254 88.5299 203.478 88.5407 204.735C88.5624 209.534 92.5491 213.608 97.4132 213.803C98.1174 213.835 98.8107 213.781 99.4824 213.662C100.912 213.402 101.508 213.976 101.736 214.344C101.963 214.713 102.223 215.503 101.357 216.673C99.0599 219.815 95.4091 221.646 91.4982 221.646ZM81.0007 210.401C81.3691 215.558 85.7674 219.783 91.0107 220.01C94.5749 220.183 97.9549 218.558 100.035 215.72C100.197 215.493 100.273 215.33 100.306 215.243C100.208 215.233 100.035 215.222 99.7641 215.276C98.9732 215.417 98.1499 215.471 97.3374 215.438C91.6174 215.211 86.9374 210.412 86.9049 204.757C86.9049 203.262 87.1974 201.821 87.7932 200.467C87.9016 200.228 87.9232 200.066 87.9341 199.979C87.8366 199.979 87.6632 200.001 87.3816 200.12C83.2541 201.853 80.6974 205.992 81.0007 210.401Z" fill="#ADB4C0"/>
<rect x="213" y="197" width="48" height="26" rx="13" fill="#FB4B1A"/>
<circle cx="248" cy="210" r="9" fill="white"/>
<path opacity="0.8" d="M135 78.5C135 97.5538 150.446 113 169.5 113C188.554 113 204 97.5538 204 78.5C204 59.4462 188.554 44 169.5 44C150.446 44 135 59.4462 135 78.5Z" fill="#FFEDE8"/>
<g filter="url(#filter1_d_67_15543)">
<path d="M142 78.5C142 93.6878 154.312 106 169.5 106C184.688 106 197 93.6878 197 78.5C197 63.3122 184.688 51 169.5 51C154.312 51 142 63.3122 142 78.5Z" fill="#FB4B1A"/>
</g>
<path d="M183.795 84.395C183.555 83.99 182.88 83.36 181.2 83.66C180.27 83.825 179.325 83.9 178.38 83.855C174.885 83.705 171.72 82.1 169.515 79.625C167.565 77.45 166.365 74.615 166.35 71.555C166.35 69.845 166.68 68.195 167.355 66.635C168.015 65.12 167.55 64.325 167.22 63.995C166.875 63.65 166.065 63.17 164.475 63.83C158.34 66.41 154.545 72.56 154.995 79.145C155.445 85.34 159.795 90.635 165.555 92.63C166.935 93.11 168.39 93.395 169.89 93.455C170.13 93.47 170.37 93.485 170.61 93.485C175.635 93.485 180.345 91.115 183.315 87.08C184.32 85.685 184.05 84.8 183.795 84.395Z" fill="#FFEDE8"/>
</g>
<defs>
<filter id="filter0_d_67_15543" x="0" y="0" width="340" height="340" filterUnits="userSpaceOnUse" color-interpolation-filters="sRGB">
<feFlood flood-opacity="0" result="BackgroundImageFix"/>
<feColorMatrix in="SourceAlpha" type="matrix" values="0 0 0 0 0 0 0 0 0 0 0 0 0 0 0 0 0 0 127 0" result="hardAlpha"/>
<feOffset dy="10"/>
<feGaussianBlur stdDeviation="20"/>
<feComposite in2="hardAlpha" operator="out"/>
<feColorMatrix type="matrix" values="0 0 0 0 0 0 0 0 0 0 0 0 0 0 0 0 0 0 0.1 0"/>
<feBlend mode="normal" in2="BackgroundImageFix" result="effect1_dropShadow_67_15543"/>
<feBlend mode="normal" in="SourceGraphic" in2="effect1_dropShadow_67_15543" result="shape"/>
</filter>
<filter id="filter1_d_67_15543" x="102" y="16" width="135" height="135" filterUnits="userSpaceOnUse" color-interpolation-filters="sRGB">
<feFlood flood-opacity="0" result="BackgroundImageFix"/>
<feColorMatrix in="SourceAlpha" type="matrix" values="0 0 0 0 0 0 0 0 0 0 0 0 0 0 0 0 0 0 127 0" result="hardAlpha"/>
<feOffset dy="5"/>
<feGaussianBlur stdDeviation="20"/>
<feComposite in2="hardAlpha" operator="out"/>
<feColorMatrix type="matrix" values="0 0 0 0 0.4 0 0 0 0 0.4 0 0 0 0 0.4 0 0 0 0.3 0"/>
<feBlend mode="normal" in2="BackgroundImageFix" result="effect1_dropShadow_67_15543"/>
<feBlend mode="normal" in="SourceGraphic" in2="effect1_dropShadow_67_15543" result="shape"/>
</filter>
</defs>
</svg>
