<svg width="340" height="340" viewBox="0 0 340 340" fill="none" xmlns="http://www.w3.org/2000/svg">
<path d="M318 160C318 241.738 251.738 308 170 308C88.2619 308 22 241.738 22 160C22 78.2619 88.2619 12 170 12C251.738 12 318 78.2619 318 160Z" fill="#FEC7B8"/>
<g filter="url(#filter0_d_67_15154)">
<circle cx="170" cy="160" r="130" fill="#FDAC96"/>
</g>
<mask id="mask0_67_15154" style="mask-type:alpha" maskUnits="userSpaceOnUse" x="40" y="30" width="260" height="260">
<path d="M300 160C300 231.797 241.797 290 170 290C98.203 290 40 231.797 40 160C40 88.203 98.203 30 170 30C241.797 30 300 88.203 300 160Z" fill="#FDAC96"/>
</mask>
<g mask="url(#mask0_67_15154)">
<g filter="url(#filter1_d_67_15154)">
<rect x="95.5493" y="104" width="149.901" height="148.447" rx="11.6053" fill="white" shape-rendering="crispEdges"/>
<path d="M147.29 146.553C147.29 159.371 157.681 169.763 170.5 169.763C183.319 169.763 193.711 159.371 193.711 146.553C193.711 133.734 183.319 123.342 170.5 123.342C157.681 123.342 147.29 133.734 147.29 146.553Z" fill="#F00073"/>
<path d="M170.5 136.688C173.691 136.688 174.127 136.688 175.432 136.688C176.593 136.688 177.173 136.978 177.608 137.123C178.188 137.413 178.624 137.559 179.059 137.994C179.494 138.429 179.784 138.864 179.929 139.444C180.074 139.88 180.219 140.46 180.364 141.62C180.364 142.926 180.364 143.216 180.364 146.553C180.364 149.889 180.364 150.179 180.364 151.485C180.364 152.645 180.074 153.226 179.929 153.661C179.639 154.241 179.494 154.676 179.059 155.111C178.624 155.547 178.188 155.837 177.608 155.982C177.173 156.127 176.593 156.272 175.432 156.417C174.127 156.417 173.836 156.417 170.5 156.417C167.163 156.417 166.873 156.417 165.568 156.417C164.407 156.417 163.827 156.127 163.392 155.982C162.811 155.692 162.376 155.547 161.941 155.111C161.506 154.676 161.216 154.241 161.071 153.661C160.926 153.226 160.781 152.645 160.635 151.485C160.635 150.179 160.635 149.889 160.635 146.553C160.635 143.216 160.635 142.926 160.635 141.62C160.635 140.46 160.926 139.88 161.071 139.444C161.361 138.864 161.506 138.429 161.941 137.994C162.376 137.559 162.811 137.268 163.392 137.123C163.827 136.978 164.407 136.833 165.568 136.688C166.873 136.688 167.308 136.688 170.5 136.688ZM170.5 134.512C167.163 134.512 166.873 134.512 165.568 134.512C164.262 134.512 163.392 134.802 162.666 135.092C161.941 135.383 161.216 135.818 160.49 136.543C159.765 137.268 159.475 137.849 159.04 138.719C158.75 139.444 158.605 140.315 158.459 141.62C158.459 142.926 158.459 143.361 158.459 146.553C158.459 149.889 158.459 150.179 158.459 151.485C158.459 152.79 158.75 153.661 159.04 154.386C159.33 155.111 159.765 155.837 160.49 156.562C161.216 157.287 161.796 157.578 162.666 158.013C163.392 158.303 164.262 158.448 165.568 158.593C166.873 158.593 167.308 158.593 170.5 158.593C173.691 158.593 174.127 158.593 175.432 158.593C176.738 158.593 177.608 158.303 178.333 158.013C179.059 157.723 179.784 157.287 180.509 156.562C181.235 155.837 181.525 155.257 181.96 154.386C182.25 153.661 182.395 152.79 182.54 151.485C182.54 150.179 182.54 149.744 182.54 146.553C182.54 143.361 182.54 142.926 182.54 141.62C182.54 140.315 182.25 139.444 181.96 138.719C181.67 137.994 181.235 137.268 180.509 136.543C179.784 135.818 179.204 135.528 178.333 135.092C177.608 134.802 176.738 134.657 175.432 134.512C174.127 134.512 173.836 134.512 170.5 134.512Z" fill="white"/>
<path d="M170.5 140.315C167.018 140.315 164.262 143.071 164.262 146.553C164.262 150.034 167.018 152.79 170.5 152.79C173.982 152.79 176.738 150.034 176.738 146.553C176.738 143.071 173.982 140.315 170.5 140.315ZM170.5 150.614C168.324 150.614 166.438 148.874 166.438 146.553C166.438 144.377 168.179 142.491 170.5 142.491C172.676 142.491 174.562 144.232 174.562 146.553C174.562 148.729 172.676 150.614 170.5 150.614Z" fill="white"/>
<path d="M176.883 141.62C177.684 141.62 178.333 140.971 178.333 140.17C178.333 139.369 177.684 138.719 176.883 138.719C176.082 138.719 175.432 139.369 175.432 140.17C175.432 140.971 176.082 141.62 176.883 141.62Z" fill="white"/>
<path d="M134.997 199.368V188.227H136.614V199.368H134.997ZM144.647 199.368V195.26C144.647 194.935 144.618 194.603 144.562 194.262C144.51 193.917 144.407 193.597 144.252 193.303C144.103 193.009 143.889 192.771 143.61 192.591C143.337 192.41 142.978 192.32 142.535 192.32C142.246 192.32 141.972 192.369 141.715 192.467C141.457 192.56 141.23 192.712 141.034 192.924C140.843 193.135 140.691 193.414 140.577 193.759C140.469 194.105 140.415 194.525 140.415 195.02L139.409 194.641C139.409 193.883 139.551 193.215 139.835 192.637C140.118 192.055 140.526 191.601 141.057 191.276C141.588 190.951 142.23 190.788 142.983 190.788C143.561 190.788 144.046 190.881 144.438 191.067C144.83 191.252 145.147 191.497 145.39 191.802C145.637 192.101 145.825 192.428 145.954 192.784C146.083 193.14 146.171 193.488 146.217 193.829C146.264 194.169 146.287 194.468 146.287 194.726V199.368H144.647ZM138.775 199.368V191.013H140.221V193.427H140.415V199.368H138.775ZM151.343 199.593C150.327 199.593 149.499 199.368 148.859 198.92C148.22 198.471 147.828 197.839 147.683 197.024L149.339 196.769C149.442 197.202 149.679 197.545 150.051 197.798C150.427 198.045 150.894 198.169 151.451 198.169C151.957 198.169 152.351 198.066 152.635 197.86C152.924 197.653 153.068 197.37 153.068 197.009C153.068 196.797 153.017 196.627 152.913 196.498C152.815 196.364 152.607 196.238 152.287 196.119C151.967 196 151.48 195.853 150.824 195.678C150.108 195.492 149.538 195.294 149.115 195.082C148.697 194.866 148.398 194.615 148.217 194.332C148.042 194.043 147.954 193.695 147.954 193.287C147.954 192.782 148.088 192.341 148.356 191.964C148.625 191.588 149.001 191.296 149.486 191.09C149.976 190.884 150.549 190.781 151.204 190.781C151.843 190.781 152.413 190.881 152.913 191.082C153.414 191.283 153.819 191.57 154.128 191.941C154.438 192.307 154.623 192.738 154.685 193.233L153.029 193.535C152.973 193.133 152.784 192.815 152.465 192.583C152.145 192.351 151.73 192.225 151.219 192.204C150.729 192.183 150.332 192.266 150.028 192.452C149.723 192.632 149.571 192.882 149.571 193.202C149.571 193.388 149.628 193.545 149.741 193.674C149.86 193.803 150.087 193.927 150.422 194.045C150.757 194.164 151.253 194.306 151.908 194.471C152.609 194.652 153.166 194.853 153.579 195.074C153.991 195.291 154.285 195.552 154.461 195.856C154.641 196.155 154.732 196.519 154.732 196.947C154.732 197.772 154.43 198.419 153.826 198.889C153.228 199.358 152.4 199.593 151.343 199.593ZM161.07 199.368C160.544 199.472 160.028 199.515 159.523 199.5C159.017 199.484 158.566 199.386 158.169 199.206C157.772 199.025 157.472 198.742 157.271 198.355C157.091 198.009 156.993 197.659 156.977 197.303C156.967 196.942 156.962 196.534 156.962 196.08V188.692H158.587V196.003C158.587 196.338 158.589 196.63 158.594 196.877C158.605 197.125 158.659 197.334 158.757 197.504C158.942 197.824 159.236 198.007 159.639 198.053C160.046 198.094 160.523 198.076 161.07 197.999V199.368ZM155.36 192.312V191.013H161.07V192.312H155.36ZM165.037 199.601C164.418 199.601 163.9 199.487 163.482 199.26C163.064 199.028 162.747 198.724 162.53 198.347C162.319 197.965 162.213 197.548 162.213 197.094C162.213 196.671 162.288 196.299 162.437 195.98C162.587 195.66 162.809 195.389 163.103 195.167C163.397 194.94 163.758 194.757 164.186 194.618C164.557 194.51 164.978 194.414 165.447 194.332C165.916 194.249 166.409 194.172 166.925 194.1C167.446 194.027 167.961 193.955 168.472 193.883L167.884 194.208C167.894 193.553 167.755 193.068 167.466 192.753C167.183 192.434 166.693 192.274 165.996 192.274C165.558 192.274 165.155 192.377 164.789 192.583C164.423 192.784 164.168 193.12 164.023 193.589L162.515 193.125C162.721 192.408 163.113 191.838 163.691 191.415C164.273 190.992 165.047 190.781 166.012 190.781C166.76 190.781 167.409 190.909 167.961 191.167C168.518 191.42 168.926 191.822 169.184 192.374C169.318 192.648 169.4 192.937 169.431 193.241C169.462 193.545 169.478 193.873 169.478 194.223V199.368H168.046V197.457L168.325 197.705C167.979 198.345 167.538 198.822 167.002 199.136C166.471 199.446 165.816 199.601 165.037 199.601ZM165.323 198.278C165.782 198.278 166.177 198.198 166.507 198.038C166.837 197.873 167.103 197.664 167.304 197.411C167.505 197.158 167.636 196.895 167.698 196.622C167.786 196.374 167.835 196.096 167.845 195.786C167.861 195.477 167.869 195.229 167.869 195.044L168.395 195.237C167.884 195.314 167.42 195.384 167.002 195.446C166.584 195.508 166.205 195.57 165.865 195.632C165.529 195.688 165.23 195.758 164.967 195.84C164.745 195.918 164.547 196.011 164.371 196.119C164.201 196.227 164.065 196.359 163.961 196.514C163.863 196.668 163.814 196.857 163.814 197.078C163.814 197.295 163.869 197.496 163.977 197.682C164.085 197.862 164.25 198.007 164.472 198.115C164.694 198.223 164.978 198.278 165.323 198.278ZM174.775 203.314C174.326 203.314 173.89 203.245 173.467 203.105C173.05 202.966 172.668 202.76 172.322 202.486C171.977 202.218 171.691 201.885 171.464 201.488L172.957 200.73C173.137 201.086 173.395 201.346 173.73 201.512C174.066 201.677 174.419 201.759 174.79 201.759C175.249 201.759 175.641 201.677 175.966 201.512C176.291 201.352 176.536 201.109 176.701 200.784C176.872 200.459 176.954 200.057 176.949 199.577V197.241H177.142V191.013H178.574V199.593C178.574 199.815 178.566 200.026 178.551 200.227C178.535 200.428 178.507 200.63 178.465 200.831C178.347 201.393 178.12 201.857 177.785 202.223C177.454 202.59 177.032 202.863 176.516 203.043C176.005 203.224 175.425 203.314 174.775 203.314ZM174.651 199.601C173.872 199.601 173.199 199.407 172.632 199.02C172.07 198.633 171.634 198.107 171.324 197.442C171.02 196.771 170.868 196.018 170.868 195.183C170.868 194.342 171.023 193.592 171.332 192.931C171.642 192.266 172.08 191.742 172.647 191.361C173.22 190.974 173.898 190.781 174.682 190.781C175.471 190.781 176.134 190.974 176.67 191.361C177.212 191.742 177.62 192.266 177.893 192.931C178.171 193.597 178.311 194.347 178.311 195.183C178.311 196.018 178.171 196.769 177.893 197.434C177.614 198.1 177.204 198.628 176.663 199.02C176.121 199.407 175.451 199.601 174.651 199.601ZM174.876 198.138C175.407 198.138 175.84 198.012 176.175 197.759C176.511 197.506 176.756 197.158 176.91 196.715C177.065 196.271 177.142 195.76 177.142 195.183C177.142 194.605 177.062 194.094 176.903 193.651C176.748 193.207 176.505 192.862 176.175 192.614C175.85 192.367 175.435 192.243 174.93 192.243C174.393 192.243 173.952 192.374 173.607 192.637C173.261 192.9 173.003 193.254 172.833 193.697C172.668 194.141 172.585 194.636 172.585 195.183C172.585 195.735 172.668 196.235 172.833 196.684C173.003 197.127 173.256 197.481 173.591 197.744C173.932 198.007 174.36 198.138 174.876 198.138ZM180.592 199.368V191.013H182.031V193.04L181.829 192.777C181.933 192.508 182.067 192.263 182.232 192.042C182.397 191.815 182.588 191.629 182.804 191.485C183.016 191.33 183.25 191.211 183.508 191.129C183.771 191.041 184.04 190.989 184.313 190.974C184.586 190.953 184.849 190.966 185.102 191.013V192.529C184.829 192.457 184.524 192.436 184.189 192.467C183.859 192.498 183.555 192.604 183.276 192.784C183.013 192.955 182.804 193.161 182.65 193.403C182.5 193.646 182.392 193.917 182.325 194.216C182.258 194.51 182.224 194.822 182.224 195.152V199.368H180.592ZM188.539 199.601C187.92 199.601 187.401 199.487 186.984 199.26C186.566 199.028 186.249 198.724 186.032 198.347C185.82 197.965 185.715 197.548 185.715 197.094C185.715 196.671 185.79 196.299 185.939 195.98C186.089 195.66 186.31 195.389 186.604 195.167C186.898 194.94 187.26 194.757 187.688 194.618C188.059 194.51 188.479 194.414 188.949 194.332C189.418 194.249 189.911 194.172 190.426 194.1C190.947 194.027 191.463 193.955 191.974 193.883L191.386 194.208C191.396 193.553 191.257 193.068 190.968 192.753C190.684 192.434 190.194 192.274 189.498 192.274C189.06 192.274 188.657 192.377 188.291 192.583C187.925 192.784 187.67 193.12 187.525 193.589L186.016 193.125C186.223 192.408 186.615 191.838 187.192 191.415C187.775 190.992 188.549 190.781 189.514 190.781C190.261 190.781 190.911 190.909 191.463 191.167C192.02 191.42 192.428 191.822 192.686 192.374C192.82 192.648 192.902 192.937 192.933 193.241C192.964 193.545 192.98 193.873 192.98 194.223V199.368H191.548V197.457L191.827 197.705C191.481 198.345 191.04 198.822 190.504 199.136C189.973 199.446 189.318 199.601 188.539 199.601ZM188.825 198.278C189.284 198.278 189.679 198.198 190.009 198.038C190.339 197.873 190.604 197.664 190.806 197.411C191.007 197.158 191.138 196.895 191.2 196.622C191.288 196.374 191.337 196.096 191.347 195.786C191.363 195.477 191.37 195.229 191.37 195.044L191.896 195.237C191.386 195.314 190.922 195.384 190.504 195.446C190.086 195.508 189.707 195.57 189.367 195.632C189.031 195.688 188.732 195.758 188.469 195.84C188.247 195.918 188.049 196.011 187.873 196.119C187.703 196.227 187.566 196.359 187.463 196.514C187.365 196.668 187.316 196.857 187.316 197.078C187.316 197.295 187.37 197.496 187.479 197.682C187.587 197.862 187.752 198.007 187.974 198.115C188.196 198.223 188.479 198.278 188.825 198.278ZM204.845 199.368L204.853 194.162C204.853 193.558 204.698 193.089 204.389 192.753C204.079 192.413 203.672 192.243 203.167 192.243C202.857 192.243 202.573 192.315 202.315 192.459C202.063 192.599 201.856 192.81 201.697 193.094C201.542 193.372 201.464 193.723 201.464 194.146L200.683 193.751C200.673 193.163 200.796 192.648 201.054 192.204C201.317 191.761 201.673 191.418 202.122 191.175C202.571 190.928 203.074 190.804 203.631 190.804C204.533 190.804 205.232 191.075 205.727 191.616C206.223 192.158 206.47 192.877 206.47 193.775L206.462 199.368H204.845ZM194.826 199.368V191.013H196.265V193.427H196.451V199.368H194.826ZM199.84 199.368L199.847 194.192C199.847 193.584 199.693 193.107 199.383 192.761C199.079 192.416 198.669 192.243 198.153 192.243C197.642 192.243 197.23 192.418 196.915 192.769C196.606 193.12 196.451 193.579 196.451 194.146L195.677 193.651C195.677 193.104 195.809 192.617 196.072 192.189C196.335 191.761 196.691 191.423 197.14 191.175C197.588 190.928 198.096 190.804 198.664 190.804C199.257 190.804 199.762 190.93 200.18 191.183C200.598 191.43 200.915 191.779 201.132 192.227C201.354 192.676 201.464 193.197 201.464 193.79L201.457 199.368H199.84Z" fill="#2C4364"/>
<path d="M131.312 227.105V218.749H134.539C134.62 218.749 134.711 218.753 134.811 218.761C134.916 218.765 135.02 218.777 135.125 218.796C135.562 218.862 135.931 219.014 136.233 219.254C136.539 219.49 136.769 219.788 136.924 220.148C137.082 220.508 137.161 220.906 137.161 221.343C137.161 221.776 137.082 222.173 136.924 222.533C136.765 222.893 136.533 223.192 136.227 223.432C135.925 223.668 135.558 223.819 135.125 223.885C135.02 223.9 134.916 223.912 134.811 223.92C134.711 223.927 134.62 223.931 134.539 223.931H132.165V227.105H131.312ZM132.165 223.119H134.515C134.585 223.119 134.666 223.115 134.759 223.107C134.852 223.099 134.943 223.086 135.032 223.067C135.318 223.005 135.552 222.887 135.734 222.713C135.92 222.539 136.057 222.332 136.146 222.092C136.239 221.852 136.285 221.602 136.285 221.343C136.285 221.084 136.239 220.835 136.146 220.595C136.057 220.351 135.92 220.142 135.734 219.968C135.552 219.794 135.318 219.676 135.032 219.614C134.943 219.595 134.852 219.583 134.759 219.579C134.666 219.571 134.585 219.568 134.515 219.568H132.165V223.119ZM140.783 227.279C140.16 227.279 139.629 227.138 139.188 226.856C138.747 226.573 138.408 226.183 138.172 225.684C137.936 225.185 137.818 224.612 137.818 223.966C137.818 223.308 137.938 222.732 138.178 222.237C138.418 221.742 138.758 221.357 139.199 221.082C139.644 220.804 140.172 220.664 140.783 220.664C141.41 220.664 141.944 220.806 142.385 221.088C142.83 221.366 143.168 221.755 143.4 222.254C143.636 222.749 143.754 223.32 143.754 223.966C143.754 224.624 143.636 225.202 143.4 225.701C143.164 226.196 142.824 226.583 142.379 226.862C141.934 227.14 141.402 227.279 140.783 227.279ZM140.783 226.461C141.48 226.461 141.998 226.231 142.338 225.771C142.679 225.306 142.849 224.705 142.849 223.966C142.849 223.208 142.677 222.604 142.333 222.156C141.992 221.707 141.476 221.482 140.783 221.482C140.315 221.482 139.928 221.589 139.623 221.802C139.321 222.011 139.095 222.303 138.944 222.678C138.797 223.049 138.723 223.479 138.723 223.966C138.723 224.72 138.897 225.326 139.246 225.782C139.594 226.235 140.106 226.461 140.783 226.461ZM147.2 227.274C146.465 227.274 145.86 227.115 145.384 226.798C144.912 226.48 144.622 226.039 144.513 225.475L145.384 225.33C145.477 225.686 145.687 225.97 146.016 226.183C146.349 226.392 146.759 226.496 147.246 226.496C147.722 226.496 148.097 226.397 148.372 226.2C148.647 225.999 148.784 225.726 148.784 225.382C148.784 225.188 148.74 225.032 148.651 224.912C148.566 224.788 148.39 224.674 148.123 224.569C147.856 224.465 147.457 224.341 146.927 224.198C146.359 224.043 145.914 223.889 145.593 223.734C145.272 223.579 145.043 223.401 144.908 223.2C144.773 222.995 144.705 222.746 144.705 222.452C144.705 222.096 144.805 221.784 145.007 221.517C145.208 221.247 145.486 221.038 145.842 220.891C146.198 220.74 146.612 220.664 147.084 220.664C147.556 220.664 147.978 220.742 148.349 220.896C148.724 221.047 149.026 221.26 149.254 221.535C149.482 221.809 149.618 222.129 149.66 222.492L148.79 222.649C148.732 222.281 148.548 221.991 148.239 221.778C147.933 221.562 147.544 221.45 147.072 221.442C146.627 221.43 146.266 221.515 145.987 221.697C145.709 221.875 145.569 222.113 145.569 222.411C145.569 222.577 145.62 222.72 145.72 222.84C145.821 222.956 146.003 223.067 146.266 223.171C146.533 223.275 146.912 223.39 147.403 223.513C147.979 223.66 148.432 223.815 148.761 223.978C149.09 224.14 149.324 224.332 149.463 224.552C149.602 224.773 149.672 225.045 149.672 225.37C149.672 225.962 149.451 226.428 149.01 226.769C148.573 227.105 147.97 227.274 147.2 227.274ZM154.255 227.105C153.903 227.179 153.555 227.208 153.21 227.192C152.87 227.177 152.564 227.103 152.293 226.972C152.026 226.84 151.823 226.635 151.684 226.357C151.572 226.125 151.51 225.891 151.498 225.655C151.491 225.415 151.487 225.142 151.487 224.836V219.098H152.334V224.802C152.334 225.065 152.336 225.285 152.34 225.463C152.348 225.637 152.388 225.792 152.462 225.927C152.601 226.186 152.821 226.341 153.123 226.392C153.429 226.442 153.806 226.43 154.255 226.357V227.105ZM150.146 221.57V220.838H154.255V221.57H150.146ZM155.257 228.318L155.31 227.894C155.464 227.906 155.576 227.875 155.646 227.802C155.716 227.728 155.758 227.629 155.774 227.506C155.789 227.382 155.793 227.248 155.785 227.105H155.257V225.881H156.25V227.337C156.25 227.693 156.159 227.96 155.977 228.138C155.799 228.316 155.559 228.376 155.257 228.318ZM163.449 227.279C162.864 227.279 162.338 227.183 161.87 226.989C161.406 226.792 161.021 226.513 160.715 226.154C160.414 225.794 160.216 225.366 160.124 224.871L160.994 224.726C161.133 225.268 161.427 225.693 161.876 226.003C162.325 226.308 162.861 226.461 163.483 226.461C163.893 226.461 164.261 226.397 164.586 226.27C164.911 226.138 165.166 225.952 165.352 225.713C165.537 225.473 165.63 225.188 165.63 224.86C165.63 224.643 165.592 224.459 165.514 224.308C165.437 224.154 165.334 224.026 165.207 223.925C165.079 223.825 164.94 223.742 164.789 223.676C164.638 223.606 164.491 223.55 164.348 223.508L162.23 222.875C161.975 222.802 161.739 222.709 161.522 222.597C161.305 222.481 161.116 222.343 160.953 222.185C160.795 222.022 160.671 221.833 160.582 221.616C160.493 221.399 160.449 221.152 160.449 220.873C160.449 220.401 160.572 219.993 160.82 219.649C161.068 219.305 161.406 219.04 161.835 218.854C162.265 218.668 162.754 218.577 163.303 218.581C163.861 218.581 164.358 218.68 164.795 218.877C165.236 219.074 165.599 219.357 165.886 219.724C166.172 220.088 166.361 220.519 166.454 221.018L165.561 221.181C165.503 220.817 165.369 220.502 165.16 220.235C164.951 219.968 164.684 219.763 164.36 219.62C164.038 219.473 163.684 219.397 163.298 219.394C162.922 219.394 162.588 219.457 162.294 219.585C162.004 219.709 161.773 219.879 161.603 220.096C161.433 220.312 161.348 220.56 161.348 220.838C161.348 221.121 161.425 221.347 161.58 221.517C161.739 221.688 161.932 221.821 162.16 221.918C162.392 222.014 162.617 222.094 162.833 222.156L164.47 222.637C164.64 222.684 164.839 222.751 165.067 222.84C165.3 222.925 165.524 223.049 165.741 223.212C165.961 223.37 166.143 223.579 166.286 223.838C166.429 224.098 166.501 224.426 166.501 224.825C166.501 225.212 166.423 225.558 166.269 225.863C166.118 226.169 165.903 226.426 165.625 226.635C165.35 226.844 165.027 227.003 164.655 227.111C164.288 227.223 163.886 227.279 163.449 227.279ZM170.994 227.105C170.642 227.179 170.294 227.208 169.95 227.192C169.609 227.177 169.304 227.103 169.033 226.972C168.766 226.84 168.563 226.635 168.424 226.357C168.312 226.125 168.25 225.891 168.238 225.655C168.23 225.415 168.227 225.142 168.227 224.836V219.098H169.074V224.802C169.074 225.065 169.076 225.285 169.08 225.463C169.087 225.637 169.128 225.792 169.201 225.927C169.341 226.186 169.561 226.341 169.863 226.392C170.168 226.442 170.546 226.43 170.994 226.357V227.105ZM166.886 221.57V220.838H170.994V221.57H166.886ZM174.503 227.279C173.881 227.279 173.349 227.138 172.908 226.856C172.467 226.573 172.128 226.183 171.892 225.684C171.656 225.185 171.538 224.612 171.538 223.966C171.538 223.308 171.658 222.732 171.898 222.237C172.138 221.742 172.478 221.357 172.919 221.082C173.364 220.804 173.892 220.664 174.503 220.664C175.13 220.664 175.664 220.806 176.105 221.088C176.55 221.366 176.888 221.755 177.12 222.254C177.356 222.749 177.474 223.32 177.474 223.966C177.474 224.624 177.356 225.202 177.12 225.701C176.884 226.196 176.544 226.583 176.099 226.862C175.654 227.14 175.122 227.279 174.503 227.279ZM174.503 226.461C175.2 226.461 175.718 226.231 176.058 225.771C176.399 225.306 176.569 224.705 176.569 223.966C176.569 223.208 176.397 222.604 176.053 222.156C175.712 221.707 175.196 221.482 174.503 221.482C174.035 221.482 173.648 221.589 173.343 221.802C173.041 222.011 172.815 222.303 172.664 222.678C172.517 223.049 172.443 223.479 172.443 223.966C172.443 224.72 172.617 225.326 172.966 225.782C173.314 226.235 173.826 226.461 174.503 226.461ZM178.638 227.105V220.838H179.404V222.347L179.253 222.15C179.323 221.964 179.414 221.794 179.526 221.639C179.638 221.481 179.76 221.351 179.892 221.25C180.054 221.107 180.244 220.999 180.46 220.925C180.677 220.848 180.895 220.804 181.116 220.792C181.336 220.776 181.538 220.792 181.719 220.838V221.639C181.491 221.581 181.242 221.568 180.971 221.599C180.7 221.629 180.451 221.738 180.222 221.923C180.013 222.086 179.857 222.281 179.752 222.51C179.648 222.734 179.578 222.974 179.543 223.229C179.509 223.481 179.491 223.73 179.491 223.978V227.105H178.638ZM183.518 229.89L184.731 226.6L184.749 227.575L182.004 220.838H182.909L185.161 226.473H184.789L186.867 220.838H187.737L184.371 229.89H183.518ZM187.583 228.318L187.636 227.894C187.79 227.906 187.903 227.875 187.972 227.802C188.042 227.728 188.084 227.629 188.1 227.506C188.115 227.382 188.119 227.248 188.111 227.105H187.583V225.881H188.576V227.337C188.576 227.693 188.485 227.96 188.303 228.138C188.125 228.316 187.885 228.376 187.583 228.318ZM195.56 227.279C195.096 227.279 194.664 227.214 194.266 227.082C193.871 226.947 193.541 226.736 193.274 226.45C193.065 226.225 192.91 225.976 192.809 225.701C192.709 225.422 192.653 225.128 192.641 224.819C192.637 224.525 192.68 224.233 192.769 223.943C192.858 223.653 192.997 223.395 193.187 223.171C193.299 223.032 193.425 222.916 193.564 222.823C193.707 222.73 193.854 222.651 194.005 222.585C193.715 222.283 193.492 222.005 193.338 221.749C193.187 221.49 193.111 221.173 193.111 220.798C193.111 220.368 193.22 219.976 193.436 219.62C193.657 219.264 193.96 218.999 194.347 218.825C194.544 218.736 194.746 218.674 194.951 218.639C195.16 218.601 195.366 218.581 195.572 218.581C195.885 218.581 196.192 218.626 196.494 218.715C196.796 218.8 197.053 218.935 197.266 219.121C197.409 219.233 197.535 219.366 197.643 219.521C197.751 219.672 197.836 219.831 197.898 219.997L197.074 220.241C196.993 220.032 196.858 219.856 196.668 219.713C196.521 219.597 196.351 219.515 196.158 219.469C195.968 219.423 195.777 219.399 195.583 219.399C195.254 219.399 194.956 219.463 194.69 219.591C194.457 219.707 194.283 219.867 194.167 220.072C194.051 220.277 193.993 220.517 193.993 220.792C193.993 221.028 194.032 221.223 194.109 221.378C194.187 221.529 194.299 221.693 194.446 221.871C194.531 221.964 194.626 222.059 194.73 222.156C194.835 222.248 194.941 222.345 195.049 222.446L197.695 224.9C197.711 224.792 197.72 224.687 197.724 224.587C197.728 224.482 197.73 224.38 197.73 224.279L197.724 223.055H198.531V224.337C198.531 224.643 198.519 224.892 198.496 225.086C198.473 225.279 198.442 225.44 198.403 225.568L199.482 226.56L198.92 227.157L197.997 226.287C197.869 226.453 197.707 226.602 197.51 226.734C197.316 226.865 197.123 226.968 196.929 227.041C196.72 227.134 196.5 227.196 196.268 227.227C196.036 227.262 195.8 227.279 195.56 227.279ZM195.572 226.455C195.792 226.455 195.991 226.442 196.169 226.415C196.347 226.388 196.517 226.332 196.68 226.246C196.885 226.138 197.038 226.038 197.138 225.945C197.239 225.848 197.32 225.763 197.382 225.689L194.666 223.206C194.504 223.256 194.351 223.326 194.208 223.415C194.069 223.5 193.949 223.602 193.848 223.722C193.736 223.862 193.653 224.022 193.599 224.204C193.544 224.386 193.517 224.577 193.517 224.778C193.525 224.991 193.56 225.188 193.622 225.37C193.688 225.548 193.784 225.707 193.912 225.846C194.094 226.059 194.337 226.214 194.643 226.31C194.949 226.407 195.258 226.455 195.572 226.455ZM202.686 227.105V226.113H203.679V227.105H202.686ZM205.517 227.105V226.113H206.509V227.105H205.517ZM208.347 227.105V226.113H209.34V227.105H208.347Z" fill="#838FA0"/>
</g>
<g filter="url(#filter2_d_67_15154)">
<rect x="255.122" y="122.375" width="112.184" height="111.167" rx="8.68523" fill="white" shape-rendering="crispEdges"/>
<path d="M293.843 154.221C293.843 163.814 301.62 171.591 311.214 171.591C320.807 171.591 328.584 163.814 328.584 154.221C328.584 144.627 320.807 136.85 311.214 136.85C301.62 136.85 293.843 144.627 293.843 154.221Z" fill="#1DA1F2"/>
<path d="M294.959 194.277V187.079H292.186V185.939H298.943V187.079H296.17V194.277H294.959ZM300.396 194.277L298.485 188.017L299.684 188.023L300.992 192.314L302.312 188.023H303.355L304.675 192.314L305.983 188.023H307.176L305.265 194.277H304.293L302.833 189.749L301.369 194.277H300.396ZM308.213 186.998V185.823H309.423V186.998H308.213ZM308.213 194.277V188.023H309.423V194.277H308.213ZM314.624 194.277C314.231 194.354 313.845 194.387 313.466 194.375C313.088 194.363 312.75 194.29 312.453 194.155C312.156 194.02 311.932 193.808 311.781 193.518C311.646 193.259 311.573 192.997 311.561 192.731C311.554 192.46 311.55 192.155 311.55 191.816V186.286H312.766V191.758C312.766 192.009 312.768 192.227 312.772 192.412C312.779 192.597 312.82 192.754 312.893 192.881C313.032 193.12 313.252 193.257 313.553 193.292C313.858 193.323 314.215 193.31 314.624 193.252V194.277ZM310.351 188.996V188.023H314.624V188.996H310.351ZM318.822 194.277C318.428 194.354 318.042 194.387 317.664 194.375C317.286 194.363 316.948 194.29 316.651 194.155C316.354 194.02 316.13 193.808 315.979 193.518C315.844 193.259 315.771 192.997 315.759 192.731C315.752 192.46 315.748 192.155 315.748 191.816V186.286H316.964V191.758C316.964 192.009 316.966 192.227 316.969 192.412C316.977 192.597 317.018 192.754 317.091 192.881C317.23 193.12 317.45 193.257 317.751 193.292C318.056 193.323 318.413 193.31 318.822 193.252V194.277ZM314.549 188.996V188.023H318.822V188.996H314.549ZM322.785 194.45C322.163 194.45 321.617 194.315 321.146 194.045C320.679 193.771 320.314 193.391 320.052 192.904C319.793 192.414 319.664 191.847 319.664 191.202C319.664 190.519 319.791 189.926 320.046 189.424C320.305 188.923 320.664 188.535 321.123 188.261C321.582 187.987 322.117 187.849 322.727 187.849C323.364 187.849 323.906 187.998 324.354 188.295C324.802 188.589 325.136 189.008 325.356 189.552C325.579 190.096 325.668 190.743 325.622 191.491H324.412V191.051C324.404 190.326 324.265 189.789 323.995 189.442C323.729 189.094 323.321 188.921 322.773 188.921C322.167 188.921 321.712 189.112 321.407 189.494C321.102 189.876 320.949 190.428 320.949 191.15C320.949 191.837 321.102 192.37 321.407 192.748C321.712 193.122 322.152 193.31 322.727 193.31C323.105 193.31 323.431 193.225 323.705 193.055C323.983 192.881 324.199 192.634 324.354 192.314L325.541 192.69C325.298 193.25 324.929 193.684 324.435 193.993C323.941 194.298 323.391 194.45 322.785 194.45ZM320.556 191.491V190.548H325.02V191.491H320.556ZM326.805 194.277V188.023H327.882V189.54L327.732 189.343C327.809 189.143 327.909 188.959 328.033 188.793C328.156 188.623 328.299 188.484 328.461 188.376C328.619 188.261 328.795 188.172 328.988 188.11C329.185 188.044 329.386 188.006 329.59 187.994C329.795 187.979 329.992 187.988 330.181 188.023V189.158C329.976 189.104 329.749 189.089 329.498 189.112C329.251 189.135 329.023 189.214 328.814 189.349C328.618 189.477 328.461 189.631 328.345 189.812C328.233 189.994 328.152 190.196 328.102 190.42C328.052 190.64 328.027 190.874 328.027 191.121V194.277H326.805Z" fill="#2C4364"/>
<path d="M293.822 214.067V207.813H296.236C296.297 207.813 296.365 207.816 296.44 207.822C296.518 207.825 296.597 207.834 296.675 207.848C297.002 207.897 297.278 208.012 297.504 208.191C297.733 208.368 297.905 208.591 298.021 208.86C298.14 209.129 298.199 209.427 298.199 209.754C298.199 210.079 298.14 210.375 298.021 210.645C297.902 210.914 297.728 211.138 297.5 211.318C297.274 211.494 296.999 211.607 296.675 211.657C296.597 211.668 296.518 211.677 296.44 211.683C296.365 211.688 296.297 211.691 296.236 211.691H294.46V214.067H293.822ZM294.46 211.083H296.219C296.271 211.083 296.332 211.08 296.401 211.075C296.471 211.069 296.539 211.059 296.605 211.044C296.819 210.998 296.995 210.91 297.131 210.779C297.27 210.649 297.372 210.494 297.439 210.315C297.508 210.135 297.543 209.948 297.543 209.754C297.543 209.561 297.508 209.374 297.439 209.194C297.372 209.012 297.27 208.856 297.131 208.725C296.995 208.595 296.819 208.507 296.605 208.46C296.539 208.446 296.471 208.437 296.401 208.434C296.332 208.429 296.271 208.426 296.219 208.426H294.46V211.083ZM298.976 214.067V207.813H300.874C300.941 207.813 301.054 207.815 301.213 207.818C301.375 207.821 301.53 207.832 301.678 207.852C302.152 207.919 302.549 208.096 302.867 208.382C303.186 208.669 303.425 209.034 303.584 209.477C303.743 209.92 303.823 210.407 303.823 210.94C303.823 211.473 303.743 211.961 303.584 212.403C303.425 212.846 303.186 213.211 302.867 213.498C302.549 213.784 302.152 213.961 301.678 214.028C301.533 214.045 301.378 214.057 301.213 214.062C301.048 214.065 300.935 214.067 300.874 214.067H298.976ZM299.636 213.454H300.874C300.993 213.454 301.12 213.452 301.256 213.446C301.395 213.437 301.514 213.423 301.612 213.402C301.977 213.339 302.271 213.191 302.494 212.959C302.72 212.728 302.885 212.438 302.989 212.091C303.093 211.741 303.145 211.357 303.145 210.94C303.145 210.52 303.093 210.135 302.989 209.785C302.885 209.435 302.72 209.145 302.494 208.916C302.268 208.688 301.974 208.541 301.612 208.478C301.514 208.458 301.394 208.444 301.252 208.439C301.113 208.43 300.987 208.426 300.874 208.426H299.636V213.454ZM304.725 214.067V207.813H308.316V208.452H305.363V210.623H307.795V211.257H305.363V214.067H304.725ZM311.757 214.067V208.526L310.58 209.233V208.517L311.757 207.813H312.404V214.067H311.757ZM313.79 214.062L313.794 213.48L316.622 210.927C316.865 210.707 317.025 210.499 317.104 210.302C317.185 210.102 317.225 209.893 317.225 209.676C317.225 209.419 317.164 209.186 317.043 208.977C316.921 208.769 316.758 208.604 316.552 208.482C316.347 208.358 316.116 208.295 315.862 208.295C315.595 208.295 315.358 208.359 315.149 208.486C314.941 208.614 314.776 208.782 314.654 208.99C314.536 209.199 314.478 209.426 314.481 209.672H313.829C313.829 209.293 313.919 208.953 314.098 208.651C314.278 208.35 314.521 208.114 314.828 207.944C315.135 207.77 315.482 207.683 315.87 207.683C316.25 207.683 316.59 207.773 316.891 207.952C317.195 208.129 317.434 208.369 317.607 208.673C317.784 208.974 317.872 209.31 317.872 209.681C317.872 209.941 317.84 210.171 317.777 210.371C317.716 210.568 317.619 210.752 317.486 210.923C317.355 211.091 317.189 211.264 316.986 211.444L314.476 213.711L314.376 213.45H317.872V214.062H313.79ZM318.83 214.067V207.813H319.469V210.766L322.322 207.813H323.138L320.224 210.831L323.377 214.067H322.543L319.469 210.94V214.067H318.83ZM326.006 214.197C325.575 214.197 325.21 214.088 324.912 213.871C324.614 213.651 324.388 213.355 324.235 212.981C324.081 212.605 324.005 212.183 324.005 211.717C324.005 211.243 324.081 210.82 324.235 210.449C324.391 210.076 324.62 209.782 324.921 209.568C325.222 209.354 325.592 209.246 326.033 209.246C326.461 209.246 326.829 209.355 327.136 209.572C327.442 209.789 327.677 210.085 327.839 210.458C328.004 210.831 328.087 211.251 328.087 211.717C328.087 212.186 328.004 212.608 327.839 212.981C327.674 213.355 327.437 213.651 327.127 213.871C326.817 214.088 326.444 214.197 326.006 214.197ZM323.896 214.067V207.813H324.539V210.536H324.469V214.067H323.896ZM325.941 213.602C326.268 213.602 326.541 213.52 326.758 213.355C326.975 213.19 327.137 212.965 327.244 212.681C327.354 212.395 327.409 212.073 327.409 211.717C327.409 211.364 327.356 211.046 327.248 210.762C327.141 210.478 326.978 210.254 326.758 210.089C326.541 209.924 326.264 209.841 325.928 209.841C325.601 209.841 325.329 209.921 325.112 210.08C324.898 210.239 324.737 210.461 324.63 210.745C324.523 211.025 324.469 211.35 324.469 211.717C324.469 212.079 324.523 212.403 324.63 212.69C324.737 212.974 324.899 213.197 325.116 213.359C325.333 213.521 325.608 213.602 325.941 213.602Z" fill="#838FA0"/>
</g>
<g filter="url(#filter3_d_67_15154)">
<rect x="-26.3059" y="122.375" width="112.184" height="111.167" rx="8.68523" fill="white" shape-rendering="crispEdges"/>
<path d="M12.4158 154.221C12.4158 163.814 20.1928 171.591 29.7862 171.591C39.3797 171.591 47.1567 163.814 47.1567 154.221C47.1567 144.627 39.3797 136.85 29.7862 136.85C20.1928 136.85 12.4158 144.627 12.4158 154.221Z" fill="#1877F2"/>
<path d="M4.60849 194.277V185.939H9.54749V187.149H5.81863V189.5H8.85267V190.716H5.81863V194.277H4.60849ZM12.0149 194.45C11.5517 194.45 11.1638 194.365 10.8511 194.195C10.5384 194.022 10.301 193.794 10.1389 193.512C9.98063 193.227 9.9015 192.914 9.9015 192.574C9.9015 192.258 9.95747 191.98 10.0694 191.74C10.1814 191.501 10.3473 191.298 10.5674 191.132C10.7874 190.963 11.0576 190.826 11.378 190.721C11.6559 190.64 11.9705 190.569 12.3218 190.507C12.6731 190.445 13.0417 190.387 13.4277 190.333C13.8176 190.279 14.2036 190.225 14.5857 190.171L14.1457 190.415C14.1534 189.924 14.0492 189.561 13.833 189.326C13.6207 189.087 13.254 188.967 12.7329 188.967C12.4048 188.967 12.1037 189.044 11.8296 189.199C11.5556 189.349 11.3645 189.6 11.2564 189.951L10.1273 189.604C10.2817 189.067 10.5751 188.641 11.0074 188.324C11.4436 188.008 12.0226 187.849 12.7445 187.849C13.3042 187.849 13.7906 187.946 14.2036 188.139C14.6205 188.328 14.9254 188.629 15.1184 189.042C15.2188 189.247 15.2806 189.463 15.3037 189.691C15.3269 189.918 15.3385 190.164 15.3385 190.426V194.277H14.2673V192.846L14.4757 193.032C14.2171 193.51 13.8871 193.867 13.4856 194.103C13.088 194.334 12.5978 194.45 12.0149 194.45ZM12.2291 193.46C12.5727 193.46 12.868 193.4 13.115 193.281C13.3621 193.157 13.5609 193.001 13.7114 192.812C13.862 192.622 13.9604 192.426 14.0067 192.221C14.0723 192.036 14.109 191.827 14.1167 191.596C14.1283 191.364 14.1341 191.179 14.1341 191.04L14.5278 191.185C14.1457 191.243 13.7983 191.295 13.4856 191.341C13.1729 191.387 12.8892 191.434 12.6345 191.48C12.3835 191.522 12.1597 191.574 11.9628 191.636C11.7968 191.694 11.6482 191.764 11.517 191.845C11.3896 191.926 11.2873 192.024 11.2101 192.14C11.1367 192.256 11.1001 192.397 11.1001 192.563C11.1001 192.725 11.1406 192.875 11.2217 193.014C11.3027 193.149 11.4262 193.257 11.5922 193.339C11.7582 193.42 11.9705 193.46 12.2291 193.46ZM19.4012 194.45C18.7605 194.45 18.2162 194.307 17.7684 194.022C17.3206 193.736 16.9771 193.344 16.7378 192.846C16.5023 192.348 16.3826 191.783 16.3788 191.15C16.3826 190.505 16.5062 189.936 16.7494 189.442C16.9925 188.944 17.3399 188.554 17.7916 188.272C18.2432 187.99 18.7856 187.849 19.4186 187.849C20.1019 187.849 20.6847 188.019 21.1672 188.359C21.6536 188.699 21.974 189.164 22.1284 189.754L20.9241 190.102C20.8044 189.751 20.6075 189.478 20.3335 189.285C20.0632 189.089 19.7525 188.99 19.4012 188.99C19.0037 188.99 18.6775 189.085 18.4227 189.274C18.1679 189.459 17.9788 189.714 17.8553 190.038C17.7317 190.362 17.6681 190.733 17.6642 191.15C17.6681 191.795 17.8147 192.316 18.1042 192.713C18.3976 193.111 18.8299 193.31 19.4012 193.31C19.7911 193.31 20.1057 193.221 20.345 193.043C20.5882 192.862 20.7735 192.603 20.9009 192.267L22.1284 192.557C21.9238 193.167 21.5861 193.636 21.1151 193.964C20.6442 194.288 20.0729 194.45 19.4012 194.45ZM25.796 194.45C25.1745 194.45 24.6283 194.315 24.1574 194.045C23.6903 193.771 23.3255 193.391 23.0631 192.904C22.8044 192.414 22.6751 191.847 22.6751 191.202C22.6751 190.519 22.8025 189.926 23.0573 189.424C23.3159 188.923 23.6749 188.535 24.1342 188.261C24.5936 187.987 25.1282 187.849 25.7381 187.849C26.375 187.849 26.9174 187.998 27.3651 188.295C27.8129 188.589 28.1468 189.008 28.3668 189.552C28.5907 190.096 28.6795 190.743 28.6332 191.491H27.423V191.051C27.4153 190.326 27.2764 189.789 27.0062 189.442C26.7398 189.094 26.3326 188.921 25.7844 188.921C25.1784 188.921 24.7229 189.112 24.418 189.494C24.113 189.876 23.9605 190.428 23.9605 191.15C23.9605 191.837 24.113 192.37 24.418 192.748C24.7229 193.122 25.163 193.31 25.7381 193.31C26.1164 193.31 26.4426 193.225 26.7166 193.055C26.9946 192.881 27.2107 192.634 27.3651 192.314L28.5521 192.69C28.3089 193.25 27.9403 193.684 27.4462 193.993C26.9521 194.298 26.402 194.45 25.796 194.45ZM23.5668 191.491V190.548H28.031V191.491H23.5668ZM32.7521 194.45C32.1537 194.45 31.6519 194.306 31.2466 194.016C30.8413 193.723 30.5344 193.327 30.326 192.829C30.1175 192.331 30.0133 191.769 30.0133 191.144C30.0133 190.519 30.1156 189.957 30.3202 189.459C30.5286 188.961 30.8336 188.569 31.235 188.284C31.6404 187.994 32.1383 187.849 32.7289 187.849C33.3156 187.849 33.8213 187.994 34.2459 188.284C34.6744 188.569 35.0044 188.961 35.236 189.459C35.4676 189.953 35.5835 190.515 35.5835 191.144C35.5835 191.769 35.4676 192.333 35.236 192.835C35.0083 193.333 34.6821 193.726 34.2575 194.016C33.8368 194.306 33.3349 194.45 32.7521 194.45ZM29.8107 194.277V185.939H31.0266V189.778H30.8876V194.277H29.8107ZM32.5842 193.356C32.9702 193.356 33.2886 193.257 33.5395 193.061C33.7943 192.864 33.9834 192.599 34.107 192.267C34.2343 191.932 34.298 191.557 34.298 191.144C34.298 190.735 34.2343 190.364 34.107 190.032C33.9834 189.7 33.7924 189.436 33.5337 189.239C33.2751 189.042 32.9451 188.944 32.5436 188.944C32.1653 188.944 31.8527 189.036 31.6056 189.222C31.3624 189.407 31.181 189.666 31.0613 189.998C30.9455 190.33 30.8876 190.712 30.8876 191.144C30.8876 191.576 30.9455 191.959 31.0613 192.291C31.1771 192.622 31.3605 192.883 31.6114 193.072C31.8623 193.261 32.1866 193.356 32.5842 193.356ZM39.4617 194.45C38.8363 194.45 38.294 194.309 37.8346 194.028C37.3753 193.746 37.0202 193.358 36.7693 192.864C36.5222 192.366 36.3987 191.793 36.3987 191.144C36.3987 190.492 36.5261 189.918 36.7808 189.424C37.0356 188.926 37.3927 188.54 37.852 188.266C38.3114 187.988 38.8479 187.849 39.4617 187.849C40.087 187.849 40.6294 187.99 41.0887 188.272C41.5481 188.554 41.9032 188.942 42.1541 189.436C42.405 189.93 42.5305 190.499 42.5305 191.144C42.5305 191.796 42.4031 192.372 42.1483 192.87C41.8974 193.364 41.5423 193.752 41.0829 194.033C40.6236 194.311 40.0832 194.45 39.4617 194.45ZM39.4617 193.31C40.06 193.31 40.5058 193.109 40.7992 192.707C41.0964 192.302 41.245 191.781 41.245 191.144C41.245 190.492 41.0945 189.971 40.7934 189.581C40.4962 189.187 40.0523 188.99 39.4617 188.99C39.0564 188.99 38.7225 189.083 38.46 189.268C38.1975 189.449 38.0026 189.702 37.8752 190.027C37.7478 190.347 37.6841 190.719 37.6841 191.144C37.6841 191.8 37.8346 192.325 38.1357 192.719C38.4368 193.113 38.8788 193.31 39.4617 193.31ZM46.4026 194.45C45.7773 194.45 45.2349 194.309 44.7756 194.028C44.3162 193.746 43.9611 193.358 43.7102 192.864C43.4632 192.366 43.3396 191.793 43.3396 191.144C43.3396 190.492 43.467 189.918 43.7218 189.424C43.9765 188.926 44.3336 188.54 44.793 188.266C45.2523 187.988 45.7889 187.849 46.4026 187.849C47.028 187.849 47.5703 187.99 48.0297 188.272C48.489 188.554 48.8441 188.942 49.095 189.436C49.346 189.93 49.4714 190.499 49.4714 191.144C49.4714 191.796 49.344 192.372 49.0893 192.87C48.8383 193.364 48.4832 193.752 48.0239 194.033C47.5645 194.311 47.0241 194.45 46.4026 194.45ZM46.4026 193.31C47.0009 193.31 47.4468 193.109 47.7401 192.707C48.0374 192.302 48.186 191.781 48.186 191.144C48.186 190.492 48.0354 189.971 47.7344 189.581C47.4371 189.187 46.9932 188.99 46.4026 188.99C45.9973 188.99 45.6634 189.083 45.4009 189.268C45.1384 189.449 44.9435 189.702 44.8161 190.027C44.6887 190.347 44.625 190.719 44.625 191.144C44.625 191.8 44.7756 192.325 45.0767 192.719C45.3778 193.113 45.8197 193.31 46.4026 193.31ZM50.6222 194.277L50.628 185.939H51.8555V191.034L54.3105 188.023H55.8507L53.2567 191.15L56.1171 194.277H54.4727L51.8555 191.266V194.277H50.6222Z" fill="#2C4364"/>
<path d="M12.3941 214.067V207.813H14.8086C14.8694 207.813 14.9374 207.816 15.0127 207.822C15.0909 207.825 15.169 207.834 15.2472 207.848C15.5743 207.897 15.8508 208.012 16.0766 208.191C16.3053 208.368 16.4776 208.591 16.5934 208.86C16.7121 209.129 16.7715 209.427 16.7715 209.754C16.7715 210.079 16.7121 210.375 16.5934 210.645C16.4747 210.914 16.301 211.138 16.0723 211.318C15.8465 211.494 15.5714 211.607 15.2472 211.657C15.169 211.668 15.0909 211.677 15.0127 211.683C14.9374 211.688 14.8694 211.691 14.8086 211.691H13.0325V214.067H12.3941ZM13.0325 211.083H14.7912C14.8433 211.083 14.9041 211.08 14.9736 211.075C15.0431 211.069 15.1111 211.059 15.1777 211.044C15.392 210.998 15.5671 210.91 15.7032 210.779C15.8421 210.649 15.9449 210.494 16.0115 210.315C16.081 210.135 16.1157 209.948 16.1157 209.754C16.1157 209.561 16.081 209.374 16.0115 209.194C15.9449 209.012 15.8421 208.856 15.7032 208.725C15.5671 208.595 15.392 208.507 15.1777 208.46C15.1111 208.446 15.0431 208.437 14.9736 208.434C14.9041 208.429 14.8433 208.426 14.7912 208.426H13.0325V211.083ZM17.5489 214.067V207.813H19.4466C19.5132 207.813 19.6261 207.815 19.7854 207.818C19.9475 207.821 20.1024 207.832 20.25 207.852C20.7248 207.919 21.1214 208.096 21.4399 208.382C21.7584 208.669 21.9972 209.034 22.1564 209.477C22.3157 209.92 22.3953 210.407 22.3953 210.94C22.3953 211.473 22.3157 211.961 22.1564 212.403C21.9972 212.846 21.7584 213.211 21.4399 213.498C21.1214 213.784 20.7248 213.961 20.25 214.028C20.1053 214.045 19.9504 214.057 19.7854 214.062C19.6203 214.065 19.5074 214.067 19.4466 214.067H17.5489ZM18.209 213.454H19.4466C19.5653 213.454 19.6927 213.452 19.8288 213.446C19.9678 213.437 20.0865 213.423 20.1849 213.402C20.5497 213.339 20.8435 213.191 21.0664 212.959C21.2923 212.728 21.4573 212.438 21.5615 212.091C21.6657 211.741 21.7178 211.357 21.7178 210.94C21.7178 210.52 21.6657 210.135 21.5615 209.785C21.4573 209.435 21.2923 209.145 21.0664 208.916C20.8406 208.688 20.5468 208.541 20.1849 208.478C20.0865 208.458 19.9663 208.444 19.8244 208.439C19.6855 208.43 19.5595 208.426 19.4466 208.426H18.209V213.454ZM23.2975 214.067V207.813H26.8888V208.452H23.9358V210.623H26.3677V211.257H23.9358V214.067H23.2975ZM30.329 214.067V208.526L29.1522 209.233V208.517L30.329 207.813H30.9761V214.067H30.329ZM32.3627 214.062L32.367 213.48L35.194 210.927C35.4372 210.707 35.5979 210.499 35.6761 210.302C35.7571 210.102 35.7977 209.893 35.7977 209.676C35.7977 209.419 35.7369 209.186 35.6153 208.977C35.4937 208.769 35.3301 208.604 35.1246 208.482C34.919 208.358 34.6889 208.295 34.4341 208.295C34.1677 208.295 33.9303 208.359 33.7219 208.486C33.5135 208.614 33.3484 208.782 33.2268 208.99C33.1081 209.199 33.0502 209.426 33.0531 209.672H32.4017C32.4017 209.293 32.4915 208.953 32.671 208.651C32.8505 208.35 33.0937 208.114 33.4005 207.944C33.7074 207.77 34.0548 207.683 34.4428 207.683C34.822 207.683 35.1622 207.773 35.4633 207.952C35.7673 208.129 36.0061 208.369 36.1798 208.673C36.3564 208.974 36.4447 209.31 36.4447 209.681C36.4447 209.941 36.4129 210.171 36.3492 210.371C36.2884 210.568 36.1914 210.752 36.0582 210.923C35.9279 211.091 35.7615 211.264 35.5588 211.444L33.0488 213.711L32.9489 213.45H36.4447V214.062H32.3627ZM37.4028 214.067V207.813H38.0412V210.766L40.8943 207.813H41.7107L38.7968 210.831L41.9495 214.067H41.1157L38.0412 210.94V214.067H37.4028ZM44.579 214.197C44.1476 214.197 43.7828 214.088 43.4846 213.871C43.1864 213.651 42.9606 213.355 42.8072 212.981C42.6538 212.605 42.577 212.183 42.577 211.717C42.577 211.243 42.6538 210.82 42.8072 210.449C42.9635 210.076 43.1922 209.782 43.4933 209.568C43.7944 209.354 44.165 209.246 44.605 209.246C45.0335 209.246 45.4012 209.355 45.7081 209.572C46.0149 209.789 46.2494 210.085 46.4116 210.458C46.5766 210.831 46.6591 211.251 46.6591 211.717C46.6591 212.186 46.5766 212.608 46.4116 212.981C46.2465 213.355 46.0091 213.651 45.6994 213.871C45.3896 214.088 45.0161 214.197 44.579 214.197ZM42.4685 214.067V207.813H43.1112V210.536H43.0417V214.067H42.4685ZM44.5138 213.602C44.841 213.602 45.1131 213.52 45.3303 213.355C45.5474 213.19 45.7095 212.965 45.8166 212.681C45.9266 212.395 45.9816 212.073 45.9816 211.717C45.9816 211.364 45.9281 211.046 45.821 210.762C45.7139 210.478 45.5503 210.254 45.3303 210.089C45.1131 209.924 44.8366 209.841 44.5008 209.841C44.1737 209.841 43.9015 209.921 43.6844 210.08C43.4702 210.239 43.3095 210.461 43.2024 210.745C43.0953 211.025 43.0417 211.35 43.0417 211.717C43.0417 212.079 43.0953 212.403 43.2024 212.69C43.3095 212.974 43.4716 213.197 43.6887 213.359C43.9059 213.521 44.1809 213.602 44.5138 213.602Z" fill="#838FA0"/>
</g>
<path opacity="0.8" d="M136 78.5C136 97.5538 151.446 113 170.5 113C189.554 113 205 97.5538 205 78.5C205 59.4462 189.554 44 170.5 44C151.446 44 136 59.4462 136 78.5Z" fill="#FFEDE8"/>
<g filter="url(#filter4_d_67_15154)">
<path d="M143 78.5C143 93.6878 155.312 106 170.5 106C185.688 106 198 93.6878 198 78.5C198 63.3122 185.688 51 170.5 51C155.312 51 143 63.3122 143 78.5Z" fill="#FB4B1A"/>
</g>
<path d="M170.5 63.5C162.235 63.5 155.5 70.235 155.5 78.5C155.5 86.765 162.235 93.5 170.5 93.5C178.765 93.5 185.5 86.765 185.5 78.5C185.5 70.235 178.765 63.5 170.5 63.5ZM177.67 75.05L169.165 83.555C168.955 83.765 168.67 83.885 168.37 83.885C168.07 83.885 167.785 83.765 167.575 83.555L163.33 79.31C162.895 78.875 162.895 78.155 163.33 77.72C163.765 77.285 164.485 77.285 164.92 77.72L168.37 81.17L176.08 73.46C176.515 73.025 177.235 73.025 177.67 73.46C178.105 73.895 178.105 74.6 177.67 75.05Z" fill="#FFEDE8"/>
</g>
<defs>
<filter id="filter0_d_67_15154" x="0" y="0" width="340" height="340" filterUnits="userSpaceOnUse" color-interpolation-filters="sRGB">
<feFlood flood-opacity="0" result="BackgroundImageFix"/>
<feColorMatrix in="SourceAlpha" type="matrix" values="0 0 0 0 0 0 0 0 0 0 0 0 0 0 0 0 0 0 127 0" result="hardAlpha"/>
<feOffset dy="10"/>
<feGaussianBlur stdDeviation="20"/>
<feComposite in2="hardAlpha" operator="out"/>
<feColorMatrix type="matrix" values="0 0 0 0 0 0 0 0 0 0 0 0 0 0 0 0 0 0 0.1 0"/>
<feBlend mode="normal" in2="BackgroundImageFix" result="effect1_dropShadow_67_15154"/>
<feBlend mode="normal" in="SourceGraphic" in2="effect1_dropShadow_67_15154" result="shape"/>
</filter>
<filter id="filter1_d_67_15154" x="37.523" y="55.6447" width="265.954" height="264.5" filterUnits="userSpaceOnUse" color-interpolation-filters="sRGB">
<feFlood flood-opacity="0" result="BackgroundImageFix"/>
<feColorMatrix in="SourceAlpha" type="matrix" values="0 0 0 0 0 0 0 0 0 0 0 0 0 0 0 0 0 0 127 0" result="hardAlpha"/>
<feOffset dy="9.67105"/>
<feGaussianBlur stdDeviation="29.0132"/>
<feComposite in2="hardAlpha" operator="out"/>
<feColorMatrix type="matrix" values="0 0 0 0 0.2125 0 0 0 0 0.2125 0 0 0 0 0.2125 0 0 0 0.12 0"/>
<feBlend mode="normal" in2="BackgroundImageFix" result="effect1_dropShadow_67_15154"/>
<feBlend mode="normal" in="SourceGraphic" in2="effect1_dropShadow_67_15154" result="shape"/>
</filter>
<filter id="filter2_d_67_15154" x="211.695" y="86.1865" width="199.037" height="198.019" filterUnits="userSpaceOnUse" color-interpolation-filters="sRGB">
<feFlood flood-opacity="0" result="BackgroundImageFix"/>
<feColorMatrix in="SourceAlpha" type="matrix" values="0 0 0 0 0 0 0 0 0 0 0 0 0 0 0 0 0 0 127 0" result="hardAlpha"/>
<feOffset dy="7.23769"/>
<feGaussianBlur stdDeviation="21.7131"/>
<feComposite in2="hardAlpha" operator="out"/>
<feColorMatrix type="matrix" values="0 0 0 0 0.2125 0 0 0 0 0.2125 0 0 0 0 0.2125 0 0 0 0.12 0"/>
<feBlend mode="normal" in2="BackgroundImageFix" result="effect1_dropShadow_67_15154"/>
<feBlend mode="normal" in="SourceGraphic" in2="effect1_dropShadow_67_15154" result="shape"/>
</filter>
<filter id="filter3_d_67_15154" x="-69.7321" y="86.1865" width="199.037" height="198.019" filterUnits="userSpaceOnUse" color-interpolation-filters="sRGB">
<feFlood flood-opacity="0" result="BackgroundImageFix"/>
<feColorMatrix in="SourceAlpha" type="matrix" values="0 0 0 0 0 0 0 0 0 0 0 0 0 0 0 0 0 0 127 0" result="hardAlpha"/>
<feOffset dy="7.23769"/>
<feGaussianBlur stdDeviation="21.7131"/>
<feComposite in2="hardAlpha" operator="out"/>
<feColorMatrix type="matrix" values="0 0 0 0 0.2125 0 0 0 0 0.2125 0 0 0 0 0.2125 0 0 0 0.12 0"/>
<feBlend mode="normal" in2="BackgroundImageFix" result="effect1_dropShadow_67_15154"/>
<feBlend mode="normal" in="SourceGraphic" in2="effect1_dropShadow_67_15154" result="shape"/>
</filter>
<filter id="filter4_d_67_15154" x="103" y="16" width="135" height="135" filterUnits="userSpaceOnUse" color-interpolation-filters="sRGB">
<feFlood flood-opacity="0" result="BackgroundImageFix"/>
<feColorMatrix in="SourceAlpha" type="matrix" values="0 0 0 0 0 0 0 0 0 0 0 0 0 0 0 0 0 0 127 0" result="hardAlpha"/>
<feOffset dy="5"/>
<feGaussianBlur stdDeviation="20"/>
<feComposite in2="hardAlpha" operator="out"/>
<feColorMatrix type="matrix" values="0 0 0 0 0.4 0 0 0 0 0.4 0 0 0 0 0.4 0 0 0 0.3 0"/>
<feBlend mode="normal" in2="BackgroundImageFix" result="effect1_dropShadow_67_15154"/>
<feBlend mode="normal" in="SourceGraphic" in2="effect1_dropShadow_67_15154" result="shape"/>
</filter>
</defs>
</svg>
