<svg width="33" height="32" viewBox="0 0 33 32" fill="none" xmlns="http://www.w3.org/2000/svg">
<path d="M0.5 16C0.5 24.8366 7.66344 32 16.5 32C25.3366 32 32.5 24.8366 32.5 16C32.5 7.16344 25.3366 0 16.5 0C7.66344 0 0.5 7.16344 0.5 16Z" fill="#E60023"/>
<path d="M16.5 8C12.1 8 8.5 11.6 8.5 16C8.5 19.3 10.5 22.1 13.3 23.3C13.3 22.7 13.3 22.1 13.4 21.5C13.6 20.8 14.4 17.1 14.4 17.1C14.4 17.1 14.1 16.6 14.1 15.8C14.1 14.6 14.8 13.7 15.6 13.7C16.3 13.7 16.7 14.2 16.7 14.9C16.7 15.6 16.2 16.7 16 17.7C15.8 18.5 16.4 19.2 17.3 19.2C18.8 19.2 19.8 17.3 19.8 14.9C19.8 13.1 18.6 11.8 16.5 11.8C14.1 11.8 12.6 13.6 12.6 15.6C12.6 16.3 12.8 16.8 13.1 17.2C13.2 17.4 13.3 17.4 13.2 17.6C13.2 17.7 13.1 18.1 13 18.2C12.9 18.4 12.8 18.5 12.6 18.4C11.5 17.9 11 16.7 11 15.3C11 13 12.9 10.3 16.7 10.3C19.8 10.3 21.8 12.5 21.8 14.9C21.8 18 20.1 20.4 17.5 20.4C16.6 20.4 15.8 19.9 15.5 19.4C15.5 19.4 15 21.2 14.9 21.6C14.7 22.2 14.4 22.8 14.1 23.3C14.8 23.5 15.6 23.6 16.4 23.6C20.8 23.6 24.4 20 24.4 15.6C24.5 11.6 20.9 8 16.5 8Z" fill="white"/>
</svg>
