<svg width="25" height="24" viewBox="0 0 25 24" fill="none" xmlns="http://www.w3.org/2000/svg">
<path d="M12.125 15.75C10.055 15.75 8.375 14.07 8.375 12C8.375 9.93 10.055 8.25 12.125 8.25C14.195 8.25 15.875 9.93 15.875 12C15.875 14.07 14.195 15.75 12.125 15.75ZM12.125 9.75C10.885 9.75 9.875 10.76 9.875 12C9.875 13.24 10.885 14.25 12.125 14.25C13.365 14.25 14.375 13.24 14.375 12C14.375 10.76 13.365 9.75 12.125 9.75Z" fill="#ADB4C0"/>
<path d="M15.335 22.1898C15.125 22.1898 14.915 22.1598 14.705 22.1098C14.085 21.9398 13.565 21.5498 13.235 20.9998L13.115 20.7998C12.525 19.7798 11.715 19.7798 11.125 20.7998L11.015 20.9898C10.685 21.5498 10.165 21.9498 9.545 22.1098C8.915 22.2798 8.265 22.1898 7.715 21.8598L5.995 20.8698C5.385 20.5198 4.945 19.9498 4.755 19.2598C4.575 18.5698 4.665 17.8598 5.015 17.2498C5.305 16.7398 5.385 16.2798 5.215 15.9898C5.045 15.6998 4.615 15.5298 4.025 15.5298C2.565 15.5298 1.375 14.3398 1.375 12.8798V11.1198C1.375 9.6598 2.565 8.4698 4.025 8.4698C4.615 8.4698 5.045 8.2998 5.215 8.0098C5.385 7.7198 5.315 7.2598 5.015 6.7498C4.665 6.1398 4.575 5.4198 4.755 4.7398C4.935 4.0498 5.375 3.4798 5.995 3.1298L7.725 2.1398C8.855 1.4698 10.345 1.8598 11.025 3.0098L11.145 3.2098C11.735 4.2298 12.545 4.2298 13.135 3.2098L13.245 3.0198C13.925 1.8598 15.415 1.4698 16.555 2.1498L18.275 3.1398C18.885 3.4898 19.325 4.0598 19.515 4.7498C19.695 5.4398 19.605 6.1498 19.255 6.7598C18.965 7.2698 18.885 7.7298 19.055 8.0198C19.225 8.3098 19.655 8.4798 20.245 8.4798C21.705 8.4798 22.895 9.6698 22.895 11.1298V12.8898C22.895 14.3498 21.705 15.5398 20.245 15.5398C19.655 15.5398 19.225 15.7098 19.055 15.9998C18.885 16.2898 18.955 16.7498 19.255 17.2598C19.605 17.8698 19.705 18.5898 19.515 19.2698C19.335 19.9598 18.895 20.5298 18.275 20.8798L16.545 21.8698C16.165 22.0798 15.755 22.1898 15.335 22.1898ZM12.125 18.4898C13.015 18.4898 13.845 19.0498 14.415 20.0398L14.525 20.2298C14.645 20.4398 14.845 20.5898 15.085 20.6498C15.325 20.7098 15.565 20.6798 15.765 20.5598L17.495 19.5598C17.755 19.4098 17.955 19.1598 18.035 18.8598C18.115 18.5598 18.075 18.2498 17.925 17.9898C17.355 17.0098 17.285 15.9998 17.725 15.2298C18.165 14.4598 19.075 14.0198 20.215 14.0198C20.855 14.0198 21.365 13.5098 21.365 12.8698V11.1098C21.365 10.4798 20.855 9.9598 20.215 9.9598C19.075 9.9598 18.165 9.5198 17.725 8.7498C17.285 7.9798 17.355 6.9698 17.925 5.9898C18.075 5.7298 18.115 5.4198 18.035 5.1198C17.955 4.8198 17.765 4.5798 17.505 4.4198L15.775 3.4298C15.345 3.1698 14.775 3.3198 14.515 3.7598L14.405 3.9498C13.835 4.9398 13.005 5.4998 12.115 5.4998C11.225 5.4998 10.395 4.9398 9.825 3.9498L9.715 3.7498C9.465 3.3298 8.905 3.1798 8.475 3.4298L6.745 4.4298C6.485 4.5798 6.285 4.8298 6.205 5.1298C6.125 5.4298 6.165 5.7398 6.315 5.9998C6.885 6.9798 6.955 7.9898 6.515 8.7598C6.075 9.5298 5.165 9.9698 4.025 9.9698C3.385 9.9698 2.875 10.4798 2.875 11.1198V12.8798C2.875 13.5098 3.385 14.0298 4.025 14.0298C5.165 14.0298 6.075 14.4698 6.515 15.2398C6.955 16.0098 6.885 17.0198 6.315 17.9998C6.165 18.2598 6.125 18.5698 6.205 18.8698C6.285 19.1698 6.475 19.4098 6.735 19.5698L8.465 20.5598C8.675 20.6898 8.925 20.7198 9.155 20.6598C9.395 20.5998 9.595 20.4398 9.725 20.2298L9.835 20.0398C10.405 19.0598 11.235 18.4898 12.125 18.4898Z" fill="#ADB4C0"/>
</svg>
