<svg width="26" height="26" viewBox="0 0 26 26" fill="none" xmlns="http://www.w3.org/2000/svg">
<path d="M22.3383 14.1592C21.9267 14.1592 21.58 13.845 21.5258 13.4334C21.2658 10.985 19.9442 8.76422 17.9075 7.35588C17.5392 7.09588 17.4525 6.59755 17.7017 6.22922C17.9617 5.86088 18.4708 5.77422 18.8283 6.02338C21.255 7.70255 22.815 10.3459 23.1292 13.26C23.1725 13.7042 22.8583 14.105 22.4033 14.1592C22.3925 14.1592 22.36 14.1592 22.3383 14.1592Z" fill="#ADB4C0"/>
<path d="M3.78083 14.2135C3.74833 14.2135 3.72667 14.2135 3.69417 14.2135C3.25 14.1594 2.925 13.7585 2.96833 13.3144C3.26083 10.4002 4.81 7.7677 7.20417 6.06686C7.5725 5.80686 8.08167 5.89353 8.34167 6.26186C8.60167 6.6302 8.515 7.13936 8.14667 7.39936C6.13167 8.81853 4.83167 11.0394 4.5825 13.4877C4.55 13.8994 4.1925 14.2135 3.78083 14.2135Z" fill="#ADB4C0"/>
<path d="M13.065 24.494C11.4617 24.494 9.93417 24.1256 8.50417 23.4106C8.10334 23.2048 7.94084 22.7173 8.14667 22.3165C8.3525 21.9156 8.84 21.7531 9.24083 21.959C11.5808 23.1398 14.3975 23.1615 16.7592 22.024C17.16 21.829 17.6475 22.0023 17.8425 22.4031C18.0375 22.804 17.8642 23.2915 17.4633 23.4865C16.0767 24.1581 14.6033 24.494 13.065 24.494Z" fill="#ADB4C0"/>
<path d="M13.065 9.14345C10.9525 9.14345 9.24083 7.43178 9.24083 5.31928C9.24083 3.20678 10.9525 1.49512 13.065 1.49512C15.1775 1.49512 16.8892 3.20678 16.8892 5.31928C16.8892 7.43178 15.1667 9.14345 13.065 9.14345ZM13.065 3.13095C11.8517 3.13095 10.8658 4.11678 10.8658 5.33012C10.8658 6.54345 11.8517 7.52928 13.065 7.52928C14.2783 7.52928 15.2642 6.54345 15.2642 5.33012C15.2642 4.11678 14.2675 3.13095 13.065 3.13095Z" fill="#ADB4C0"/>
<path d="M5.2325 22.3925C3.12 22.3925 1.40833 20.6808 1.40833 18.5683C1.40833 16.4666 3.12 14.7441 5.2325 14.7441C7.345 14.7441 9.05667 16.4558 9.05667 18.5683C9.05667 20.67 7.345 22.3925 5.2325 22.3925ZM5.2325 16.3691C4.01917 16.3691 3.03333 17.355 3.03333 18.5683C3.03333 19.7816 4.01917 20.7675 5.2325 20.7675C6.44583 20.7675 7.43167 19.7816 7.43167 18.5683C7.43167 17.355 6.44583 16.3691 5.2325 16.3691Z" fill="#ADB4C0"/>
<path d="M20.7675 22.3925C18.655 22.3925 16.9433 20.6808 16.9433 18.5683C16.9433 16.4666 18.655 14.7441 20.7675 14.7441C22.88 14.7441 24.5917 16.4558 24.5917 18.5683C24.5808 20.67 22.8692 22.3925 20.7675 22.3925ZM20.7675 16.3691C19.5542 16.3691 18.5683 17.355 18.5683 18.5683C18.5683 19.7816 19.5542 20.7675 20.7675 20.7675C21.9808 20.7675 22.9667 19.7816 22.9667 18.5683C22.9558 17.355 21.9808 16.3691 20.7675 16.3691Z" fill="#ADB4C0"/>
</svg>
