<svg width="26" height="26" viewBox="0 0 26 26" fill="none" xmlns="http://www.w3.org/2000/svg">
<path d="M19.1317 24.5593C18.5575 24.5593 17.8208 24.3752 16.9 23.8335L13.6608 21.916C13.325 21.721 12.675 21.721 12.35 21.916L9.1 23.8335C7.1825 24.971 6.05583 24.516 5.54667 24.1477C5.04833 23.7793 4.26833 22.8368 4.7775 20.6702L5.54667 17.3443C5.63333 16.9977 5.46 16.4018 5.2 16.1418L2.51333 13.4552C1.17 12.1118 1.27833 10.9635 1.4625 10.4002C1.64667 9.83684 2.23167 8.84018 4.095 8.52601L7.55083 7.95184C7.87583 7.89768 8.34167 7.55101 8.4825 7.25851L10.4 3.43434C11.2667 1.69018 12.4042 1.43018 13 1.43018C13.5958 1.43018 14.7333 1.69018 15.6 3.43434L17.5067 7.24768C17.6583 7.54018 18.1242 7.88684 18.4492 7.94101L21.905 8.51518C23.7792 8.82934 24.3642 9.82601 24.5375 10.3893C24.7108 10.9527 24.8192 12.101 23.4867 13.4443L20.8 16.1418C20.54 16.4018 20.3775 16.9868 20.4533 17.3443L21.2225 20.6702C21.7208 22.8368 20.9517 23.7793 20.4533 24.1477C20.1825 24.3427 19.7492 24.5593 19.1317 24.5593ZM13 20.1393C13.5308 20.1393 14.0617 20.2693 14.4842 20.5185L17.7233 22.436C18.6658 22.9993 19.2617 22.9993 19.4892 22.8368C19.7167 22.6743 19.8792 22.1002 19.6408 21.0385L18.8717 17.7127C18.6658 16.8135 19.0017 15.6543 19.6517 14.9935L22.3383 12.3068C22.8692 11.776 23.1075 11.256 22.9992 10.8985C22.88 10.541 22.3817 10.2485 21.645 10.1293L18.1892 9.55518C17.355 9.41434 16.445 8.74268 16.0658 7.98434L14.1592 4.17101C13.8125 3.47768 13.3792 3.06601 13 3.06601C12.6208 3.06601 12.1875 3.47768 11.8517 4.17101L9.93417 7.98434C9.555 8.74268 8.645 9.41434 7.81083 9.55518L4.36583 10.1293C3.62917 10.2485 3.13083 10.541 3.01167 10.8985C2.8925 11.256 3.14167 11.7868 3.6725 12.3068L6.35917 14.9935C7.00917 15.6435 7.345 16.8135 7.13917 17.7127L6.37 21.0385C6.12083 22.111 6.29417 22.6743 6.52167 22.8368C6.74917 22.9993 7.33417 22.9885 8.2875 22.436L11.5267 20.5185C11.9383 20.2693 12.4692 20.1393 13 20.1393Z" fill="#ADB4C0"/>
</svg>
