<svg width="193" height="192" viewBox="0 0 193 192" fill="none" xmlns="http://www.w3.org/2000/svg">
<g filter="url(#filter0_d_208_20757)">
<mask id="mask0_208_20757" style="mask-type:alpha" maskUnits="userSpaceOnUse" x="40" y="36" width="113" height="112">
<circle cx="96.5" cy="92" r="56" fill="#FDAC96"/>
</mask>
<g mask="url(#mask0_208_20757)">
<circle cx="96.5" cy="92" r="56" fill="#FDAC96"/>
<g filter="url(#filter1_d_208_20757)">
<path d="M132.5 154H61.5C57.0817 154 53.5 150.418 53.5 146V109.147C53.5 108.061 53.7215 106.985 54.1509 105.987L72.8086 62.6076C73.2281 61.6321 74.1881 61 75.25 61H97H118.75C119.812 61 120.772 61.6321 121.191 62.6076L139.849 105.987C140.279 106.985 140.5 108.061 140.5 109.147V146C140.5 150.418 136.918 154 132.5 154Z" fill="#EAECF0"/>
</g>
<g filter="url(#filter2_d_208_20757)">
<rect x="79.5" y="51" width="35" height="5" rx="2.5" fill="white"/>
</g>
<path d="M132.5 148H61.5C57.0817 148 53.5 144.418 53.5 140V119.732C53.5 118.332 53.8672 116.957 54.565 115.744L74.3084 81.4124C74.8109 80.5386 75.742 80 76.75 80H97H117.25C118.258 80 119.189 80.5386 119.692 81.4124L139.435 115.744C140.133 116.957 140.5 118.332 140.5 119.732V140C140.5 144.418 136.918 148 132.5 148Z" fill="#EAECF0"/>
<path d="M132.5 158H61.5C57.0817 158 53.5 154.418 53.5 150V123.081C53.5 121.33 54.0748 119.627 55.1362 118.233L74.1333 93.2961C74.7555 92.4794 75.7233 92 76.75 92H97H117.25C118.277 92 119.244 92.4794 119.867 93.2961L138.864 118.233C139.925 119.627 140.5 121.33 140.5 123.081V150C140.5 154.418 136.918 158 132.5 158Z" fill="white"/>
<path d="M72.5 100C72.5 113.255 83.2452 124 96.5 124C109.755 124 120.5 113.255 120.5 100C120.5 86.7452 109.755 76 96.5 76C83.2452 76 72.5 86.7452 72.5 100Z" fill="#EFFAF3"/>
<g filter="url(#filter3_d_208_20757)">
<path d="M78.5 100C78.5 109.941 86.5589 118 96.5 118C106.441 118 114.5 109.941 114.5 100C114.5 90.0589 106.441 82 96.5 82C86.5589 82 78.5 90.0589 78.5 100Z" fill="#47CB84"/>
</g>
<path d="M96.5 90.25C94.5716 90.25 92.6866 90.8218 91.0832 91.8932C89.4798 92.9645 88.2301 94.4873 87.4922 96.2688C86.7542 98.0504 86.5611 100.011 86.9373 101.902C87.3136 103.793 88.2422 105.531 89.6057 106.894C90.9693 108.258 92.7066 109.186 94.5979 109.563C96.4892 109.939 98.4496 109.746 100.231 109.008C102.013 108.27 103.535 107.02 104.607 105.417C105.678 103.813 106.25 101.928 106.25 100C106.247 97.415 105.219 94.9366 103.391 93.1087C101.563 91.2808 99.085 90.2527 96.5 90.25ZM100.781 98.2806L95.5306 103.531C95.461 103.6 95.3783 103.656 95.2872 103.693C95.1962 103.731 95.0986 103.751 95 103.751C94.9014 103.751 94.8038 103.731 94.7128 103.693C94.6218 103.656 94.539 103.6 94.4694 103.531L92.2194 101.281C92.0786 101.14 91.9996 100.949 91.9996 100.75C91.9996 100.551 92.0786 100.36 92.2194 100.219C92.3601 100.079 92.551 99.9996 92.75 99.9996C92.949 99.9996 93.1399 100.079 93.2806 100.219L95 101.94L99.7194 97.2194C99.7891 97.1497 99.8718 97.0944 99.9628 97.0567C100.054 97.019 100.151 96.9996 100.25 96.9996C100.349 96.9996 100.446 97.019 100.537 97.0567C100.628 97.0944 100.711 97.1497 100.781 97.2194C100.85 97.2891 100.906 97.3718 100.943 97.4628C100.981 97.5539 101 97.6515 101 97.75C101 97.8485 100.981 97.9461 100.943 98.0372C100.906 98.1282 100.85 98.2109 100.781 98.2806Z" fill="white"/>
</g>
</g>
<defs>
<filter id="filter0_d_208_20757" x="0.5" y="0" width="192" height="192" filterUnits="userSpaceOnUse" color-interpolation-filters="sRGB">
<feFlood flood-opacity="0" result="BackgroundImageFix"/>
<feColorMatrix in="SourceAlpha" type="matrix" values="0 0 0 0 0 0 0 0 0 0 0 0 0 0 0 0 0 0 127 0" result="hardAlpha"/>
<feOffset dy="4"/>
<feGaussianBlur stdDeviation="20"/>
<feComposite in2="hardAlpha" operator="out"/>
<feColorMatrix type="matrix" values="0 0 0 0 0.658333 0 0 0 0 0.658333 0 0 0 0 0.658333 0 0 0 0.2 0"/>
<feBlend mode="normal" in2="BackgroundImageFix" result="effect1_dropShadow_208_20757"/>
<feBlend mode="normal" in="SourceGraphic" in2="effect1_dropShadow_208_20757" result="shape"/>
</filter>
<filter id="filter1_d_208_20757" x="13.5" y="26" width="167" height="173" filterUnits="userSpaceOnUse" color-interpolation-filters="sRGB">
<feFlood flood-opacity="0" result="BackgroundImageFix"/>
<feColorMatrix in="SourceAlpha" type="matrix" values="0 0 0 0 0 0 0 0 0 0 0 0 0 0 0 0 0 0 127 0" result="hardAlpha"/>
<feOffset dy="5"/>
<feGaussianBlur stdDeviation="20"/>
<feComposite in2="hardAlpha" operator="out"/>
<feColorMatrix type="matrix" values="0 0 0 0 0.4 0 0 0 0 0.4 0 0 0 0 0.4 0 0 0 0.13 0"/>
<feBlend mode="normal" in2="BackgroundImageFix" result="effect1_dropShadow_208_20757"/>
<feBlend mode="normal" in="SourceGraphic" in2="effect1_dropShadow_208_20757" result="shape"/>
</filter>
<filter id="filter2_d_208_20757" x="39.5" y="16" width="115" height="85" filterUnits="userSpaceOnUse" color-interpolation-filters="sRGB">
<feFlood flood-opacity="0" result="BackgroundImageFix"/>
<feColorMatrix in="SourceAlpha" type="matrix" values="0 0 0 0 0 0 0 0 0 0 0 0 0 0 0 0 0 0 127 0" result="hardAlpha"/>
<feOffset dy="5"/>
<feGaussianBlur stdDeviation="20"/>
<feComposite in2="hardAlpha" operator="out"/>
<feColorMatrix type="matrix" values="0 0 0 0 0.4 0 0 0 0 0.4 0 0 0 0 0.4 0 0 0 0.13 0"/>
<feBlend mode="normal" in2="BackgroundImageFix" result="effect1_dropShadow_208_20757"/>
<feBlend mode="normal" in="SourceGraphic" in2="effect1_dropShadow_208_20757" result="shape"/>
</filter>
<filter id="filter3_d_208_20757" x="38.5" y="47" width="116" height="116" filterUnits="userSpaceOnUse" color-interpolation-filters="sRGB">
<feFlood flood-opacity="0" result="BackgroundImageFix"/>
<feColorMatrix in="SourceAlpha" type="matrix" values="0 0 0 0 0 0 0 0 0 0 0 0 0 0 0 0 0 0 127 0" result="hardAlpha"/>
<feOffset dy="5"/>
<feGaussianBlur stdDeviation="20"/>
<feComposite in2="hardAlpha" operator="out"/>
<feColorMatrix type="matrix" values="0 0 0 0 0.4 0 0 0 0 0.4 0 0 0 0 0.4 0 0 0 0.2 0"/>
<feBlend mode="normal" in2="BackgroundImageFix" result="effect1_dropShadow_208_20757"/>
<feBlend mode="normal" in="SourceGraphic" in2="effect1_dropShadow_208_20757" result="shape"/>
</filter>
</defs>
</svg>
