<svg width="26" height="26" viewBox="0 0 26 26" fill="none" xmlns="http://www.w3.org/2000/svg">
<path d="M20.6808 13.6393C20.5074 13.6393 20.3341 13.5851 20.1824 13.4659C15.8166 10.0968 10.1724 10.0968 5.8066 13.4659C5.4491 13.7368 4.93993 13.6718 4.66909 13.3251C4.39826 12.9676 4.46326 12.4584 4.80993 12.1876C9.78243 8.34176 16.2066 8.34176 21.1683 12.1876C21.5258 12.4584 21.5908 12.9676 21.3091 13.3251C21.1683 13.5309 20.9299 13.6393 20.6808 13.6393Z" fill="#ADB4C0"/>
<path d="M23.8334 9.86926C23.66 9.86926 23.4867 9.81512 23.335 9.69596C17.0517 4.84262 8.93754 4.84262 2.66504 9.69596C2.30754 9.96679 1.79837 9.90178 1.52754 9.55512C1.2567 9.19762 1.32169 8.68843 1.66836 8.4176C8.54753 3.09843 17.4417 3.09843 24.3317 8.4176C24.6892 8.68843 24.7542 9.19762 24.4725 9.55512C24.3209 9.76095 24.0717 9.86926 23.8334 9.86926Z" fill="#ADB4C0"/>
<path d="M18.6443 17.5934C18.4709 17.5934 18.2976 17.5392 18.1459 17.42C15.0259 15.0042 10.9851 15.0042 7.85424 17.42C7.49674 17.6909 6.98757 17.6259 6.71674 17.2792C6.44591 16.9217 6.51091 16.4126 6.85758 16.1417C10.5842 13.2601 15.4051 13.2601 19.1317 16.1417C19.4892 16.4126 19.5542 16.9217 19.2726 17.2792C19.1209 17.4851 18.8826 17.5934 18.6443 17.5934Z" fill="#ADB4C0"/>
<path d="M15.8169 21.5582C15.6435 21.5582 15.4702 21.504 15.3185 21.3848C13.9102 20.2907 12.0794 20.2907 10.671 21.3848C10.3135 21.6557 9.80435 21.5907 9.53352 21.244C9.26268 20.8865 9.32767 20.3774 9.67434 20.1065C11.6893 18.5465 14.2894 18.5465 16.3044 20.1065C16.6619 20.3774 16.7268 20.8865 16.4452 21.244C16.3043 21.439 16.066 21.5582 15.8169 21.5582Z" fill="#ADB4C0"/>
</svg>
